<?xml version="1.0" encoding="utf-8"?>
<!-- Generator: Adobe Illustrator 19.2.1, SVG Export Plug-In . SVG Version: 6.00 Build 0)  -->
<svg version="1.1" id="illustration" xmlns="http://www.w3.org/2000/svg" xmlns:xlink="http://www.w3.org/1999/xlink" x="0px"
	 y="0px" viewBox="0 0 1400 980" style="enable-background:new 0 0 1400 980;" xml:space="preserve">
<style type="text/css">
	.st0{fill:#151D38;}
	.st1{fill:#FFFFFF;}
	.st2{fill:#FCE2D8;}
	.st3{fill:#249A4B;}
	.st4{fill:#AEDEF8;}
	.st5{fill:#F1A465;}
	.st6{fill:#EDC062;}
	.st7{fill:#CED8DC;}
	.st8{fill:#EA6AA2;}
	.st9{fill:#EFD2E6;}
	.st10{fill:#7DA6ED;}
</style>
<g>
	<path class="st0" d="M529.499,815.342c-1.005-1.181-1.425-2.49-1.372-4.093c0.117-3.528-0.01-7.064,0.046-10.595
		c0.121-7.625,3.477-13.437,10.286-16.863c6.667-3.354,13.304-2.773,19.395,1.579c1.562,1.116,2.966,1.414,4.732,1.08
		c3.585-0.677,7.079-1.62,10.403-3.156c1.066-0.493,1.325-0.997,0.262-1.777c-0.689-0.506-1.378-1.021-2.005-1.599
		c-0.926-0.854-1.038-1.93-0.264-2.869c0.681-0.826,1.675-0.921,2.605-0.281c0.881,0.606,1.725,1.264,2.586,1.898
		c2.117,1.56,2.117,1.56,3.914-0.265c1.611-1.636,1.615-1.641-0.212-3.093c-0.921-0.732-1.876-1.422-2.784-2.168
		c-0.974-0.8-1.168-1.873-0.465-2.851c0.746-1.036,1.887-0.95,2.872-0.306c1.162,0.76,2.26,1.624,3.345,2.493
		c0.916,0.733,1.526,0.508,2.002-0.478c0.372-0.77,0.732-1.548,1.149-2.294c1.02-1.827,0.918-3.498-0.039-5.431
		c-6.313-12.746-12.505-25.552-18.739-38.336c-4.406-9.036-8.735-18.111-13.279-27.078c-1.216-2.4-0.887-3.984,0.815-5.971
		c12.741-14.874,25.273-29.928,38.121-44.709c2.684-3.088,2.028-6.281,2.058-9.597c0.009-1.002-0.931-1.01-1.686-1.016
		c-1.926-0.016-3.853,0.008-5.779-0.018c-2.737-0.038-2.739-0.051-2.776-2.909c-0.01-0.749-0.002-1.498-0.002-2.248
		c0-25.473-0.036-50.947,0.059-76.42c0.009-2.378-0.697-3.56-2.854-4.58c-21.165-10.012-42.274-20.142-63.399-30.238
		c-0.965-0.461-1.91-0.971-2.901-1.367c-1.434-0.574-1.587-1.382-0.914-2.743c2.276-4.601,4.437-9.258,6.655-13.888
		c1.311-2.737,1.686-2.542-1.27-3.954c-31.834-15.209-63.669-30.415-95.472-45.688c-1.713-0.823-3.061-0.96-4.757-0.042
		c-2.534,1.371-5.213,2.475-7.831,3.689c-3.83,1.776-4.075,1.695-5.811-1.987c-0.958-2.032-1.932-4.057-2.828-6.116
		c-0.511-1.174-1.107-1.882-2.589-1.856c-2.528,0.044-4.541-1.172-5.883-3.306c-0.52-0.826-1.097-1.157-2.046-1.221
		c-3.05-0.209-5.24-1.733-6.393-4.584c-0.334-0.826-0.811-1.148-1.657-1.184c-0.634-0.027-1.271-0.17-1.892-0.321
		c-4.467-1.09-7.305-3.889-8.417-8.325c-1.09-4.349,0.23-8.064,3.495-11.021c1.899-1.72,3.969-3.264,6.053-4.761
		c1.239-0.891,1.568-1.666,0.847-3.156c-3.354-6.931-6.528-13.948-9.869-20.885c-2.398-4.978-5.895-9.16-9.903-12.927
		c-6.126-5.757-13.144-10.255-20.406-14.404c-10.405-5.945-21.243-11.062-31.842-16.637c-11.186-5.884-22.095-12.211-32.118-19.968
		c-18.437-14.269-31.45-32.268-37.291-55.008c-6.07-23.628-4.35-46.559,7.864-68.028c11.357-19.963,28.554-31.975,51.277-35.933
		c1.765-0.307,3.663,0.187,5.3-0.87c3.64,0,7.28,0,10.92,0c1.986,1.034,4.2,0.612,6.297,0.954
		c17.766,2.904,33.021,10.869,46.034,23.104c16.701,15.703,26.675,35.087,30.521,57.634c2.604,15.267,1.598,30.476-1.003,45.642
		c-2.442,14.239-6.38,28.137-9.583,42.202c-1.925,8.453-3.583,16.942-3.85,25.647c-0.246,8.022,0.828,15.776,4.326,23.095
		c2.075,4.34,4.075,8.716,6.14,13.061c1.01,2.125,1.043,2.109,3.327,1.431c8.572-2.543,16.87,0.806,20.702,8.395
		c2.296,4.548,2.467,9.221,0.66,13.976c-1.059,2.786-1.061,2.794,1.707,4.118c19.379,9.267,38.76,18.531,58.141,27.794
		c34.616,16.545,69.233,33.087,103.846,49.638c1.445,0.691,2.832,1.502,4.278,2.192c0.94,0.448,1.831,1.184,2.996,0.783
		c-0.076,0.246-0.115,0.26-0.124,0.039c0.057,0.034,0.113,0.069,0.17,0.103c-8.074-8.276-16.084-16.605-23.042-25.878
		c-11.124-14.826-18.393-31.279-21.101-49.677c-0.4-2.717-0.433-2.762-3.295-3.066c-14.403-1.53-21.354-16.771-14.582-28.234
		c3.544-5.998,8.992-8.977,15.889-9.332c3.19-0.164,3.149-0.114,4.017-3.028c9.29-31.199,29.029-53.062,59.421-64.572
		c52.563-19.906,111.351,10.414,126.244,64.652c0.085,0.309,0.142,0.627,0.23,0.935c0.677,2.385,0.681,2.469,3.181,2.393
		c7.643-0.233,14.885,4.515,17.765,11.916c4.569,11.739-3.298,24.427-15.892,25.628c-2.869,0.274-2.925,0.266-3.241,2.466
		c-3.009,20.923-11.921,39.128-25.344,55.28c-5.343,6.429-11.144,12.43-16.935,18.443c-0.742,0.771-1.503,1.525-2.215,2.323
		c-0.27,0.303-0.643,0.744-0.59,1.058c0.118,0.703,0.821,0.506,1.309,0.508c7.814,0.033,15.628,0.055,23.442,0.068
		c6.102,0.01,12.204,0.049,18.304-0.025c1.686-0.02,2.296,0.614,2.259,2.24c-0.06,2.675-0.007,5.352-0.016,8.028
		c-0.009,2.556-0.024,2.583,2.396,3.212c14.381,3.733,27.367,10.316,39.231,19.187c14.914,11.154,27,24.941,37.393,40.29
		c5.164,7.626,9.845,15.54,14.034,23.747c1.017,1.992,1.811,4.472,3.648,5.545c1.773,1.035,4.109-0.297,6.183-0.653
		c4.32-0.743,8.622-1.585,12.935-2.372c0.947-0.173,1.901-0.318,2.857-0.424c3.17-0.351,5.703,0.789,7.401,3.476
		c1.686,2.667,1.685,5.459,0.131,8.215c-0.312,0.554-0.719,1.064-1.139,1.545c-0.644,0.738-0.355,1.08,0.455,1.286
		c1.45,0.369,2.902,0.729,4.342,1.134c4.249,1.197,6.469,4.402,5.991,8.614c-0.44,3.87-3.491,6.571-7.676,6.796
		c-1.975,0.106-1.965,0.104-1.522,1.949c0.815,3.395,0.258,6.446-2.607,8.672c-2.834,2.202-5.908,2.201-9.014,0.478
		c-2.619-1.452-5.237-2.905-7.867-4.338c-0.252-0.137-0.698-0.288-0.852-0.17c-0.536,0.41,0.036,0.744,0.242,1.007
		c0.664,0.846,1.271,1.716,1.677,2.719c1.267,3.126,0.473,6.557-2.037,8.781c-2.507,2.221-6.006,2.58-8.958,0.914
		c-1.328-0.75-2.348-1.829-3.297-3.008c-2.551-3.167-5.117-6.324-7.724-9.445c-1.235-1.478-1.36-1.489-2.489,0.169
		c-1.536,2.255-3.458,3.754-6.281,3.885c-3.026,0.14-5.464-0.958-7.117-3.509c-1.727-2.665-1.795-5.487-0.144-8.185
		c1.562-2.553,3.284-5.014,5.035-7.443c0.845-1.173,0.949-2.136,0.311-3.504c-8.227-17.637-17.998-34.293-30.966-48.918
		c-10.121-11.415-21.755-20.879-35.761-27.188c-2.432-1.095-4.967-1.961-7.461-2.917c-1.1-0.422-1.613-0.014-1.547,1.161
		c0.024,0.427,0.002,0.856-0.003,1.284c-0.054,4.655-0.054,4.662-4.564,4.655c-8.456-0.014-16.912-0.045-25.369-0.053
		c-3.232-0.003-3.253,0.017-3.254,3.373c-0.007,25.262,0.012,50.525-0.018,75.787c-0.007,6.09,0.748,5.104-5.329,5.202
		c-1.926,0.031-3.857,0.076-5.779-0.011c-1.588-0.072-2.09,0.651-1.998,2.116c0.067,1.066,0.096,2.148-0.009,3.209
		c-0.183,1.834,0.491,3.221,1.668,4.621c8.539,10.16,17.001,20.385,25.495,30.584c23.083,27.717,46.177,55.425,69.243,83.157
		c2.753,3.31,5.993,6.101,9.1,9.043c1.213,1.149,2.15,1.021,3.3,0.014c0.963-0.844,2.01-1.602,3.073-2.318
		c0.997-0.672,2.111-0.739,2.848,0.306c0.691,0.979,0.507,2.043-0.458,2.86c-0.489,0.414-1.115,0.714-1.487,1.21
		c-0.584,0.777-2.678,0.863-1.509,2.464c1.4,1.917,3.149,2.294,4.567,1.339c0.709-0.478,1.378-1.016,2.097-1.479
		c0.839-0.541,1.672-0.386,2.338,0.289c0.784,0.794,0.776,1.74,0.144,2.619c-0.305,0.424-0.753,0.757-1.174,1.081
		c-0.843,0.649-0.768,1.179,0.149,1.654c0.094,0.049,0.174,0.125,0.267,0.176c5.408,2.966,11.135,4.902,17.311,5.443
		c1.457,0.128,2.626-0.259,3.884-1.05c12.191-7.667,27.168-0.551,28.911,13.726c0.546,4.473,0.107,8.983,0.226,13.474
		c0.038,1.451-0.751,2.394-1.735,3.267c-23.98,0-47.961,0-71.941,0c-0.71-1.179-1.451-2.34-2.127-3.538
		c-5.939-10.523-11.869-21.05-17.792-31.581c-0.735-1.306-1.501-2.575-2.477-3.731c-31.403-37.195-62.799-74.395-94.156-111.629
		c-1.214-1.442-2.469-2.056-4.354-2.049c-15.728,0.06-31.456,0.061-47.184-0.001c-1.89-0.007-3.146,0.627-4.369,2.043
		c-10.489,12.146-21.018,24.258-31.621,36.304c-1.355,1.54-1.403,2.717-0.54,4.49c5.43,11.149,10.752,22.352,16.099,33.541
		c7.048,14.749,14.641,29.266,19.142,45.099c0.41,1.441,0.912,2.825,0.905,4.365c-0.032,7.596-0.047,15.193,0.011,22.79
		c0.013,1.641-0.461,2.918-1.756,3.899C589.022,815.342,559.261,815.342,529.499,815.342z"/>
	<path class="st1" d="M398.715,259.567c-0.454-23.451-9.059-45.526-26.314-63.964c-14.314-15.295-31.797-24.868-52.953-26.633
		c-21.483-1.793-39.887,5.206-54.713,20.821c-13.418,14.133-19.636,31.467-20.373,50.702c-0.923,24.089,6.56,45.6,21.727,64.23
		c14.491,17.799,32.926,29.212,56.109,31.556c23.773,2.404,43.604-5.786,58.946-24.044
		C393.424,297.621,398.434,280.27,398.715,259.567z"/>
	<path class="st1" d="M311.197,338.721l-0.086-0.016l0.176-0.046c0.365,1.194,1.554,1.355,2.434,1.815
		c5.961,3.12,11.961,6.164,17.946,9.238c9.124,4.687,18.24,9.389,26.661,15.301c5.625,3.949,10.825,8.36,15.099,13.789
		c1.457,1.851,2.824,3.764,3.952,5.832c0.648,1.188,1.446,1.384,2.62,0.775c1.421-0.737,2.893-1.373,4.339-2.063
		c2.49-1.187,2.504-1.195,1.661-3.714c-2.2-6.568-2.982-13.329-2.67-20.218c0.31-6.844,1.332-13.598,2.702-20.309
		c2.415-11.828,5.717-23.447,8.26-35.243c0.443-2.056,1.384-4.07,0.895-6.269c0.273-0.064,0.637-0.076,0.28-0.495
		c-0.068,0.189-0.136,0.378-0.204,0.568c-1.452,1.34-1.926,3.253-2.824,4.909c-14.398,26.556-41.733,40.876-71.749,37.504
		C317.517,339.724,314.368,339.167,311.197,338.721z"/>
	<path class="st2" d="M548.086,421.803c4.112-0.131,4.162-0.137,4.706,3.955c2.604,19.569,10.207,36.993,22.37,52.49
		c6.224,7.93,13.221,15.157,20.141,22.459c5.007,5.284,9.969,10.606,13.985,16.725c0.579,0.882,1.387,1.624,2.141,2.379
		c9.681,9.695,19.37,19.38,29.058,29.067c0.454,0.454,0.881,0.941,1.372,1.352c1.462,1.226,2.225,1.233,3.649,0.05
		c0.41-0.341,0.767-0.746,1.145-1.124c10.369-10.368,20.74-20.735,31.103-31.11c0.602-0.603,1.218-1.214,1.706-1.908
		c3.644-5.185,7.917-9.829,12.281-14.398c5.617-5.882,11.33-11.673,16.649-17.834c10.831-12.545,19.247-26.429,23.776-42.501
		c1.541-5.47,2.514-11.045,3.386-16.649c0.357-2.292,0.659-2.463,2.9-2.497c0.963-0.014,1.928,0.047,2.888,0.001
		c6.08-0.293,11.508-4.505,13.364-10.345c1.824-5.743-0.068-12.16-4.759-15.931c-3.632-2.92-7.761-3.885-12.352-3.039
		c-2.359,0.435-2.752,0.153-3.408-2.16c-0.467-1.645-0.924-3.3-1.254-4.976c-0.339-1.725-1.327-2.408-3.026-2.708
		c-16.364-2.884-30.917-9.742-43.757-20.244c-1.409-1.152-2.804-1.671-4.63-1.664c-15.091,0.059-30.183,0.037-45.275,0.027
		c-1.398-0.001-2.746,0.169-4.117,0.494c-12.532,2.975-25.209,3.82-37.889,1.415c-7.507-1.424-14.982-2.25-22.599-1.908
		c-0.855,0.038-1.735,0.13-2.564-0.019c-2.171-0.389-3.256,0.719-4.269,2.471c-4.143,7.169-7.479,14.665-9.653,22.663
		c-0.421,1.547-0.834,3.098-1.2,4.659c-0.328,1.399-1.2,1.945-2.576,1.787c-0.638-0.073-1.272-0.18-1.909-0.261
		c-8.591-1.088-16.214,5.252-16.685,13.875C532.32,414.893,539.456,422.077,548.086,421.803z"/>
	<path class="st3" d="M643.951,637.552c-10.273,0-20.545,0-30.818,0c-3.638,0-7.276-0.01-10.915,0.003
		c-3.211,0.011-3.215,0.022-3.239,3.092c-0.011,1.391-0.083,2.788,0.018,4.172c0.118,1.614-0.44,2.85-1.509,4.044
		c-2.283,2.55-4.448,5.206-6.661,7.818c-10.653,12.571-21.299,25.148-31.975,37.7c-0.948,1.114-1.632,1.986-0.812,3.625
		c4.068,8.127,8.004,16.319,11.965,24.499c0.532,1.1,1.052,1.636,2.445,1.1c3.987-1.534,8.026-2.941,12.078-4.295
		c1.444-0.483,1.45-1.152,0.86-2.344c-1.85-3.737-3.47-7.595-5.471-11.247c-1.31-2.391-0.865-3.993,0.868-5.961
		c11.314-12.848,22.545-25.77,33.708-38.75c1.497-1.74,3.083-2.297,5.275-2.288c16.479,0.063,32.958,0.075,49.437-0.011
		c2.354-0.012,3.954,0.679,5.484,2.509c12.561,15.021,25.219,29.96,37.846,44.925c6.072,7.196,12.132,14.402,18.215,21.589
		c1.54,1.82,1.59,1.82,3.546,0.408c4.077-2.943,8.112-5.943,12.208-8.858c1.094-0.779,1.446-1.444,0.357-2.471
		c-0.464-0.437-0.827-0.98-1.238-1.473c-17.527-21.049-34.971-42.169-52.661-63.08c-3.027-3.578-4.95-7.06-4.225-11.754
		c0.048-0.313-0.025-0.644,0.006-0.962c0.156-1.575-0.642-2.099-2.1-1.994c-0.745,0.054-1.497,0.006-2.246,0.005
		C670.916,637.552,657.434,637.552,643.951,637.552z"/>
	<path class="st2" d="M862.598,612.754c-0.066-2.144-1.561-3.71-3.682-3.741c-1.058-0.016-2.129,0.192-3.178,0.385
		c-6.205,1.14-12.403,2.32-18.609,3.454c-3.04,0.555-3.367,0.418-4.928-2.203c-1.806-3.032-3.608-6.071-5.287-9.174
		c-7.615-14.074-16.383-27.355-27.033-39.336c-12.297-13.833-26.415-25.276-43.437-32.877c-4.793-2.14-9.723-3.902-14.783-5.287
		c-2.326-0.637-2.537-0.464-2.558,2.025c-0.037,4.389,0.061,8.78-0.046,13.166c-0.042,1.701,0.611,2.489,2.181,2.951
		c3.389,0.997,6.632,2.393,9.828,3.898c15.409,7.255,27.927,18.124,38.777,31.06c12.273,14.633,21.526,31.1,29.38,48.422
		c0.69,1.521,0.33,2.608-0.527,3.833c-2.023,2.894-4.05,5.791-5.922,8.782c-1.188,1.898-0.667,3.864,1.045,5.091
		c1.649,1.181,3.774,0.964,5.184-0.654c0.768-0.882,1.376-1.906,2.027-2.886c2.498-3.762,3.037-3.781,5.974-0.186
		c2.912,3.565,5.816,7.135,8.748,10.683c0.679,0.821,1.378,1.663,2.21,2.314c1.533,1.198,3.305,1.125,4.727-0.026
		c1.51-1.222,1.915-3.131,0.884-4.892c-0.59-1.007-1.384-1.9-2.129-2.809c-2.306-2.815-4.635-5.611-6.95-8.42
		c-0.751-0.911-1.053-1.926-0.227-2.906c0.742-0.879,1.739-0.679,2.657-0.26c0.679,0.31,1.313,0.717,1.967,1.082
		c5.323,2.974,10.644,5.951,15.969,8.921c0.747,0.417,1.477,0.899,2.275,1.183c1.941,0.69,3.985-0.219,4.839-2.056
		c0.807-1.735,0.286-3.677-1.37-4.799c-0.703-0.477-1.504-0.814-2.273-1.189c-3.847-1.871-7.701-3.728-11.547-5.601
		c-1.538-0.749-3.078-1.495-4.588-2.299c-1.114-0.594-1.499-1.568-0.877-2.692c0.526-0.95,1.412-1.265,2.472-0.792
		c0.391,0.174,0.799,0.319,1.168,0.533c4.597,2.656,9.629,4.036,14.775,5.119c2.299,0.484,4.542,1.254,6.85,1.675
		c2.19,0.399,4.14-1.024,4.594-3.063c0.431-1.932-0.63-3.773-2.702-4.508c-1.003-0.356-2.067-0.54-3.105-0.799
		c-6.12-1.526-12.247-3.027-18.357-4.592c-1.835-0.47-2.472-1.33-2.194-2.583c0.268-1.202,1.185-1.588,3.125-1.167
		c2.193,0.476,4.385,0.978,6.545,1.586c2.113,0.594,4.033-0.118,5.903-0.817C861.935,615.729,862.545,614.31,862.598,612.754z"/>
	<path class="st2" d="M419.602,414.089c-0.008-8.892-7.923-15.09-16.015-13.183c-2.828,0.667-4.994,2.365-7.178,4.087
		c-1.68,1.324-3.412,2.596-4.979,4.044c-1.127,1.042-1.142,2.65-0.332,3.808c0.796,1.137,2.333,1.566,3.726,0.924
		c0.669-0.308,1.257-0.803,1.856-1.249c2.06-1.534,4.111-3.081,6.161-4.628c1.033-0.779,2.14-1.165,3.167-0.126
		c0.91,0.919,0.687,1.96-0.138,2.86c-0.452,0.493-0.849,0.922-0.474,1.668c1.484,2.956,2.452,6.19,4.434,8.872
		c2.399,3.247,2.722,7.571,5.612,10.548c0.257,0.265,0.331,0.811,0.315,1.219c-0.066,1.689,0.72,3.097,1.393,4.547
		c1.127,2.425,2.373,4.802,3.358,7.284c0.886,2.234,2.382,3.534,4.55,4.565c31.958,15.207,63.877,30.497,95.805,45.766
		c0.771,0.369,1.567,0.691,2.317,1.098c0.844,0.459,1.379,0.247,1.781-0.597c2.25-4.733,4.502-9.466,6.784-14.183
		c0.41-0.847,0.279-1.415-0.561-1.82c-0.578-0.279-1.156-0.557-1.735-0.833c-36.077-17.251-72.155-34.5-108.227-51.763
		c-1.469-0.703-2.802-1.503-4.359-0.052c-0.833,0.777-1.855,0.369-2.526-0.475c-0.702-0.883-0.541-1.802,0.209-2.606
		c0.51-0.547,1.079-1.04,1.589-1.587C418.43,419.817,419.469,416.851,419.602,414.089z"/>
	<path class="st3" d="M644.202,357.273c23.534,0,47.068,0,70.603,0c0.749,0,1.499,0.03,2.246-0.01
		c1.592-0.085,1.777-0.373,0.843-1.639c-2.991-4.053-6.387-7.749-9.951-11.31c-1.325-1.324-2.705-1.802-4.538-1.79
		c-10.269,0.065-20.539,0.031-30.808,0.031c-29.204,0-58.408,0.018-87.612-0.039c-1.968-0.004-3.418,0.492-4.815,1.909
		c-3.083,3.128-6.087,6.315-8.757,9.803c-0.617,0.806-1.945,1.621-1.412,2.627c0.498,0.938,1.939,0.402,2.956,0.403
		C596.705,357.278,620.454,357.273,644.202,357.273z"/>
	<path class="st4" d="M574.471,801.28c0,0.056,0,0.112,0,0.167c10.804,0,21.608,0,32.413,0c2.353,0,4.707,0.03,7.06-0.011
		c2.395-0.042,2.413-0.073,2.458-2.567c0.033-1.818,0.044-3.638-0.002-5.455c-0.057-2.24,0.426-4.555-0.268-6.707
		c-1.804-5.592-3.808-11.119-5.692-16.686c-0.362-1.071-0.96-1.522-2.103-1.514c-5.348,0.037-10.697,0.027-16.046,0.009
		c-0.946-0.003-1.567,0.245-1.966,1.222c-0.684,1.678-1.481,3.318-2.345,4.911c-0.519,0.958-0.341,1.537,0.514,2.13
		c1.141,0.791,2.228,1.663,3.322,2.52c1.018,0.798,1.638,1.749,0.808,3.023c-0.717,1.101-1.819,1.143-3.344,0.098
		c-1.057-0.724-2.087-1.501-3.058-2.337c-0.947-0.816-1.673-0.674-2.402,0.259c-0.327,0.419-0.721,0.795-1.127,1.139
		c-0.972,0.824-0.95,1.495,0.129,2.252c1.31,0.919,2.575,1.914,3.783,2.964c0.833,0.723,0.941,1.694,0.25,2.584
		c-0.663,0.855-1.562,1.125-2.548,0.524c-0.637-0.388-1.31-0.776-1.816-1.308c-2.648-2.784-5.469-3.782-8.809-1.119
		c-0.4,0.319-0.979,0.413-1.475,0.612c-2.589,1.038-5.279,1.73-8.01,2.247c-0.99,0.188-1.31,0.532-0.801,1.462
		c0.204,0.374,0.379,0.772,0.505,1.178c0.334,1.082-0.062,1.954-1.036,2.4c-0.973,0.446-1.897,0.188-2.509-0.768
		c-0.403-0.63-0.733-1.307-1.148-1.928c-3.253-4.866-7.822-7.156-13.65-6.763c-6.94,0.468-12.855,6.458-13.41,13.375
		c-0.12,1.488,0.276,2.267,1.89,2.089c0.423-0.047,0.855-0.004,1.283-0.004C548.373,801.28,561.422,801.28,574.471,801.28z"/>
	<path class="st4" d="M821.867,801.447c11.232,0,22.463,0.009,33.695-0.006c3.124-0.004,3.243-0.176,2.808-3.301
		c-0.818-5.883-5.69-10.934-11.724-12.153c-5.963-1.205-12.142,1.588-15.352,6.965c-0.492,0.824-0.82,1.752-1.351,2.545
		c-0.585,0.874-1.44,1.278-2.494,0.763c-1.017-0.498-1.376-1.365-1.039-2.401c0.295-0.908,0.726-1.783,1.184-2.625
		c0.592-1.09,0.257-1.426-0.908-1.608c-6.191-0.963-12.034-2.968-17.359-6.291c-1.523-0.95-2.614-0.923-3.969,0.258
		c-1.688,1.472-3.503,2.821-5.38,4.045c-1.519,0.991-3.292,0.041-3.221-1.564c0.043-0.967,0.718-1.515,1.4-2.04
		c1.524-1.175,3.064-2.331,4.59-3.503c0.652-0.501,0.697-1.001-0.029-1.499c-0.44-0.301-0.906-0.592-1.271-0.973
		c-1.173-1.222-2.255-1.241-3.531-0.068c-1.096,1.009-2.361,1.836-3.572,2.716c-1.011,0.735-2.021,0.726-2.842-0.271
		c-0.841-1.023-0.563-2.026,0.359-2.823c0.969-0.838,1.991-1.623,3.043-2.354c1.098-0.764,1.412-1.398,0.191-2.415
		c-1.723-1.435-3.376-2.97-4.938-4.579c-0.931-0.959-1.68-0.946-2.75-0.272c-4.432,2.792-8.915,5.502-13.359,8.276
		c-1.847,1.153-1.854,1.208-0.751,3.2c3.573,6.454,7.24,12.857,10.718,19.361c1.035,1.936,2.232,2.694,4.477,2.67
		C799.617,801.382,810.743,801.447,821.867,801.447z"/>
	<path class="st1" d="M785.718,763.599c-0.315-0.411-0.686-0.928-1.091-1.416c-3.14-3.784-6.285-7.562-9.431-11.341
		c-6.428-7.721-12.852-15.447-19.292-23.158c-1.447-1.733-1.487-1.728-3.262-0.483c-1.574,1.104-3.117,2.254-4.675,3.383
		c-2.422,1.756-4.843,3.515-7.268,5.268c-1.934,1.397-2.011,1.303-0.498,3.081c0.208,0.244,0.407,0.496,0.614,0.741
		c9.099,10.782,18.198,21.564,27.298,32.346c0.276,0.327,0.573,0.638,0.824,0.982c0.629,0.863,1.315,0.874,2.195,0.325
		c4.531-2.827,9.086-5.617,13.627-8.428C785.2,764.625,785.724,764.395,785.718,763.599z"/>
	<path class="st1" d="M689.804,532.289c0.049-0.801-0.447-1.103-0.807-1.466c-2.182-2.203-4.359-4.411-6.574-6.581
		c-2.938-2.877-2.143-2.991-5.045-0.105c-6.595,6.56-13.161,13.149-19.738,19.726c-2.495,2.495-4.967,5.013-7.495,7.474
		c-0.898,0.875-1.264,1.529-0.151,2.587c2.711,2.577,5.358,5.227,7.937,7.937c1.042,1.094,1.69,0.777,2.588-0.126
		c9.431-9.47,18.889-18.912,28.336-28.367C689.223,533,689.546,532.584,689.804,532.289z"/>
	<path class="st1" d="M638.167,552.659c-0.117-0.769-0.801-1.181-1.313-1.697c-3.613-3.64-7.244-7.262-10.87-10.89
		c-5.666-5.667-11.355-11.312-16.979-17.021c-1.037-1.053-1.699-1.23-2.8-0.055c-2.483,2.65-5.077,5.198-7.695,7.716
		c-0.993,0.955-1.029,1.638-0.022,2.606c2.542,2.443,5.002,4.97,7.495,7.464c6.951,6.952,13.921,13.884,20.831,20.876
		c1.043,1.055,1.711,1.247,2.816,0.075c2.49-2.643,5.116-5.158,7.677-7.736C637.669,553.631,638.131,553.31,638.167,552.659z"/>
	<path class="st1" d="M599.25,764.566c2.35,0,4.701-0.039,7.049,0.014c1.476,0.034,1.607-0.55,1.026-1.722
		c-0.949-1.911-1.833-3.855-2.754-5.781c-4.283-8.954-8.562-17.91-12.858-26.858c-1.169-2.434-1.2-2.44-3.814-1.526
		c-3.524,1.232-7.045,2.472-10.552,3.751c-2.029,0.739-2.067,0.801-1.175,2.64c4.47,9.219,8.993,18.412,13.434,27.645
		c0.638,1.326,1.39,1.955,2.917,1.872C594.759,764.479,597.007,764.569,599.25,764.566z"/>
	<path class="st1" d="M574.124,810.864c12.839,0,25.677,0,38.516-0.001c0.856,0,1.711-0.011,2.567-0.026
		c0.439-0.008,0.941-0.114,1.033-0.559c0.284-1.37,0.452-2.843-0.051-4.117c-0.416-1.052-1.71-0.598-2.618-0.599
		c-26.212-0.021-52.424-0.022-78.636-0.01c-2.841,0.001-2.841,0.046-2.812,2.854c0.003,0.321,0.03,0.643,0.008,0.962
		c-0.079,1.128,0.51,1.523,1.553,1.49c0.748-0.023,1.498,0.005,2.246,0.005C548.661,810.864,561.392,810.864,574.124,810.864z"/>
	<path class="st1" d="M823.567,805.544c-10.491,0-20.982-0.001-31.472,0.001c-0.856,0-1.713,0.009-2.568,0.03
		c-0.785,0.02-1.17,0.299-0.867,1.183c1.129,3.29,2.254,4.104,5.805,4.104c20.125,0.001,40.25,0.001,60.376,0
		c0.749,0,1.5-0.035,2.248-0.004c1.124,0.047,1.507-0.543,1.471-1.571c-0.022-0.641-0.044-1.288,0.009-1.926
		c0.119-1.435-0.604-1.904-1.924-1.82c-0.746,0.047-1.498,0.003-2.247,0.003C844.121,805.544,833.844,805.544,823.567,805.544z"/>
	<path class="st2" d="M385.442,432.876c1.233-0.085,2.643-0.285,3.773-1.149c4.156-3.178,8.309-6.362,12.366-9.665
		c1.578-1.285,1.629-2.891,0.516-4.232c-1.062-1.281-2.655-1.46-4.294-0.345c-1.234,0.839-2.367,1.825-3.548,2.742
		c-2.445,1.9-4.886,3.807-7.341,5.695c-0.967,0.744-2.076,0.877-2.878-0.08c-0.884-1.054-0.638-2.199,0.438-3.087
		c0.906-0.747,1.844-1.456,2.76-2.191c2.031-1.63,2.107-2.238,0.683-4.486c-0.415-0.655-0.804-0.924-1.498-0.363
		c-2.074,1.678-4.303,3.193-6.215,5.038c-2.203,2.125-2.634,4.865-1.447,7.683C379.945,431.258,382.236,432.656,385.442,432.876z"/>
	<path class="st0" d="M387.569,386.188c-1.778,0.823-3.789,1.822-5.855,2.69c-1.478,0.62-1.525,1.442-0.864,2.755
		c1.346,2.672,2.48,5.452,3.848,8.111c1.098,2.135,1.549,4.626,3.402,6.357c2.174-1.173,3.918-2.928,5.902-4.357
		c0.173-0.125,0.327-0.277,0.502-0.399c0.74-0.512,0.84-1.133,0.458-1.941c-1.917-4.059-3.801-8.135-5.716-12.195
		C388.98,386.641,388.694,386.008,387.569,386.188z"/>
	<path class="st2" d="M407.997,426.222c-0.129-0.991-0.535-1.846-1.422-2.369c-0.964-0.568-1.264,0.433-1.796,0.849
		c-4.45,3.478-8.889,6.97-13.341,10.445c-1.447,1.129-1.423,2.192,0.142,3.044c1.269,0.691,2.476,0.453,3.577-0.404
		c3.785-2.946,7.562-5.903,11.34-8.858C407.372,428.243,407.954,427.389,407.997,426.222z"/>
	<path class="st2" d="M400.725,443.194c0.865-0.02,1.629-0.355,2.314-0.891c2.426-1.898,4.85-3.8,7.275-5.699
		c0.595-0.466,1.102-1.005,1.353-1.734c0.434-1.264,0.042-2.34-0.95-3.122c-0.97-0.763-1.542,0.267-2.147,0.729
		c-3.038,2.322-6.051,4.679-9.037,7.068c-0.603,0.482-1.69,0.803-1.309,1.902C398.611,442.559,399.6,442.999,400.725,443.194z"/>
	<path class="st1" d="M643.352,586.701c-2.094-0.065-3.899,1.654-3.924,3.737c-0.025,2.063,1.779,3.858,3.851,3.831
		c1.973-0.026,3.646-1.634,3.743-3.597C647.125,588.566,645.462,586.766,643.352,586.701z"/>
	<path class="st1" d="M647.024,577.671c-0.001-2.112-1.767-3.851-3.863-3.804c-2.073,0.047-3.823,1.904-3.73,3.961
		c0.088,1.946,1.775,3.595,3.727,3.644C645.245,581.524,647.025,579.774,647.024,577.671z"/>
	<path class="st1" d="M643.19,568.099c2.061,0.03,3.721-1.49,3.829-3.506c0.114-2.13-1.597-3.953-3.737-3.981
		c-1.984-0.026-3.734,1.594-3.852,3.566C639.305,566.29,641.009,568.068,643.19,568.099z"/>
	<path class="st0" d="M735.788,733.678c1.072,0.183,1.512-0.366,2.01-0.722c2.427-1.733,4.831-3.497,7.243-5.25
		c1.809-1.315,3.638-2.604,5.416-3.959c0.512-0.39,1.505-0.743,0.69-1.705c-0.728-0.859-1.314-0.149-1.915,0.229
		c-0.18,0.113-0.345,0.25-0.517,0.375c-3.96,2.885-7.921,5.767-11.877,8.656c-0.429,0.313-0.856,0.636-1.235,1.004
		c-0.205,0.199-0.467,0.459-0.182,0.819C735.616,733.374,735.771,733.652,735.788,733.678z"/>
	<path class="st0" d="M588.422,723.449c-0.41-0.953-1.141-0.845-1.888-0.581c-4.221,1.493-8.438,2.997-12.657,4.497
		c-0.533,0.19-0.999,0.461-0.823,1.131c0.22,0.841,0.863,0.838,1.519,0.624c0.911-0.297,1.803-0.654,2.709-0.971
		c3.321-1.161,6.649-2.305,9.963-3.485C587.805,724.463,588.54,724.328,588.422,723.449z"/>
	<path class="st0" d="M1171.191,639.985c-0.408,0.403-0.529,0.925-0.548,1.463c-0.263,7.404-3.907,13.196-8.801,18.369
		c-3.629,3.836-7.92,6.857-12.322,9.719c-4.215,2.74-8.476,5.409-12.69,8.15c-2.427,1.579-4.676,3.391-6.687,5.487
		c-2.444,2.547-4.13,5.414-4.206,9.082c-0.035,1.668-1.404,2.572-3,2.232c-0.847-0.181-0.875-0.844-0.901-1.47
		c-0.098-2.39,0.346-4.685,1.328-6.867c1.251-2.781,3.152-5.074,5.381-7.12c3.09-2.837,6.578-5.127,10.098-7.371
		c4.33-2.759,8.748-5.382,12.913-8.395c3.569-2.581,6.924-5.396,9.665-8.873c8.412-10.669,7.729-25.786-1.56-34.832
		c-12.097-11.781-31.818-7.707-38.32,7.882c-1.053,2.526-1.22,5.203-1.629,7.827c-4.627,29.689-9.189,59.388-13.772,89.084
		c-0.703,4.553-0.71,4.554-5.247,4.555c-12.201,0.001-24.402,0-36.603,0.002c-0.856,0-1.712,0.018-2.568,0.041
		c-0.895,0.024-1.374,0.482-1.393,1.39c-0.016,0.749-0.038,1.498-0.038,2.246c-0.002,16.91-0.001,33.82-0.001,50.73
		c0,0.535,0.037,1.072,0.005,1.605c-0.09,1.495,0.564,2.103,2.086,2.079c3.745-0.061,7.492-0.039,11.237-0.004
		c2.534,0.023,2.495,0.06,2.632,2.411c0.098,1.687-0.732,3.776,0.426,4.962c1.276,1.307,3.451,0.427,5.228,0.519
		c1.921,0.1,3.853,0.074,5.778,0.01c1.34-0.044,2.027,0.422,1.92,1.834c-0.04,0.532-0.006,1.07,0.002,1.605
		c0.074,5.281-0.707,4.656,4.877,4.702c2.889,0.024,5.78-0.026,8.669,0.016c2.393,0.035,2.393,0.074,2.456,2.576
		c0.003,0.107,0,0.214,0.001,0.321c0.072,4.95,0.072,4.951,4.874,4.951c7.706,0,15.412-0.007,23.117,0.004
		c3.242,0.004,3.263,0.038,3.096,3.164c-0.023,0.425-0.126,0.846-0.191,1.268c-79.864,0-159.727,0-239.59,0
		c0.116-4.435,0.116-4.436,4.767-4.436c9.418,0,18.837,0,28.255-0.001c0.749,0,1.5,0.014,2.247-0.028
		c0.741-0.042,0.954-0.397,0.424-0.987c-0.428-0.477-0.919-0.897-1.363-1.361c-7.835-8.2-7.779-20.977,0.123-28.98
		c7.853-7.952,20.895-8.167,28.992-0.479c8.188,7.774,8.675,20.508,1.162,28.984c-0.736,0.831-2.458,1.495-1.978,2.531
		c0.395,0.852,2.154,0.303,3.3,0.305c11.666,0.027,23.332,0.017,34.998,0.015c0.856,0,1.712-0.017,2.568-0.017
		c0.95,0,1.312-0.513,1.306-1.413c-0.01-1.391,0.09-2.788-0.001-4.172c-0.107-1.628,0.479-2.321,2.174-2.275
		c3.102,0.084,6.207,0.021,9.311,0.019c0.642,0,1.285,0.013,1.926-0.004c2.522-0.07,2.534-0.073,2.604-2.472
		c0.032-1.069-0.015-2.141,0.013-3.211c0.062-2.384,0.071-2.409,2.578-2.439c2.568-0.031,5.137,0.004,7.706-0.011
		c3.067-0.019,3.068-0.029,3.09-3.232c0.005-0.749-0.015-1.499,0.006-2.247c0.066-2.373,0.071-2.408,2.575-2.431
		c3.639-0.034,7.278,0.019,10.917-0.022c2.479-0.028,2.536-0.072,2.549-2.518c0.034-6.314,0.013-12.629,0.013-18.944
		c0-10.917,0.001-21.833-0.002-32.75c0-0.856-0.019-1.712-0.036-2.568c-0.016-0.776-0.471-1.169-1.194-1.214
		c-0.96-0.06-1.924-0.07-2.887-0.07c-12.201-0.004-24.402-0.003-36.603-0.004c-0.856,0-1.714-0.044-2.568-0.005
		c-1.46,0.067-2.025-0.611-2.243-2.053c-1.87-12.371-3.812-24.73-5.732-37.093c-2.708-17.434-5.418-34.868-8.126-52.302
		c-0.295-1.902-0.602-3.803-0.869-5.709c-1.376-9.838-9.64-17.784-19.54-18.775c-14.488-1.45-26.228,8.789-26.933,23.305
		c-0.418,8.624,2.79,15.637,8.844,21.534c3.388,3.301,7.211,6.045,11.176,8.599c4.407,2.838,8.853,5.615,13.214,8.522
		c3.125,2.083,6.018,4.476,8.325,7.48c2.275,2.963,3.708,6.25,3.53,10.078c-0.041,0.887,0.29,2.136-1.302,1.966
		c-1.106-0.118-2.528,0.078-2.508-1.719c0.056-5.106-2.871-8.568-6.445-11.653c-3.17-2.736-6.718-4.94-10.252-7.162
		c-4.527-2.847-9.108-5.614-13.349-8.893c-2.887-2.233-5.605-4.646-7.936-7.463c-7.285-8.803-9.053-18.818-5.68-29.536
		c5.897-18.735,29.141-25.255,44.151-12.6c0.634,0.534,1.077,1.363,2.031,1.464c0.003-0.005,0.049-0.056,0.049-0.056l-0.08,0.165
		c0.272-4.321-1.088-8.442-1.558-12.672c-0.374-3.366-1.335-6.609-0.571-10.139c2.549-11.766,11.604-19.415,23.7-19.508
		c10.703-0.082,21.407-0.014,32.111-0.021c2.826-0.002,2.826-0.016,3.847-2.575c1.997-5.002,6.669-8.208,11.958-8.206
		c5.298,0.002,10.055,3.112,11.89,8.235c1.014,2.831,1.115,2.539,3.926,2.543c10.597,0.015,21.193-0.02,31.79,0.015
		c8.23,0.028,15.062,3.099,19.862,9.889c3.631,5.137,5.383,10.791,3.964,17.243c-0.963,4.378-1.431,8.866-2.099,13.307
		c-0.093,0.617-0.392,1.479,0.138,1.81c0.64,0.4,1.09-0.434,1.532-0.844c3.62-3.351,7.846-5.505,12.656-6.582
		c14.447-3.234,29.308,6.002,32.841,20.362c0.511,2.078-0.125,4.311,0.991,6.274C1171.191,637.416,1171.191,638.7,1171.191,639.985z
		"/>
	<path class="st5" d="M1053.631,600.239c-21.51,0-43.021-0.005-64.531,0.005c-3.119,0.001-3.137,0.07-2.681,3.005
		c1.247,8.03,2.471,16.063,3.717,24.093c4.902,31.591,9.81,63.182,14.714,94.773c0.436,2.806,0.431,2.808,3.142,2.861
		c0.428,0.008,0.856,0.002,1.284,0.002c29.643,0,59.287,0,88.93,0c0.642,0,1.288-0.049,1.926,0.003
		c1.472,0.122,2.111-0.571,2.3-1.996c0.394-2.967,0.887-5.921,1.343-8.88c2.658-17.225,5.303-34.451,7.979-51.673
		c3.069-19.757,6.169-39.509,9.242-59.266c0.432-2.779,0.32-2.874-2.513-2.925c-0.642-0.012-1.284-0.003-1.926-0.003
		C1095.581,600.239,1074.606,600.239,1053.631,600.239z"/>
	<path class="st5" d="M1053.316,596.367c21.178,0,42.356,0,63.534,0c0.963,0,1.927,0.032,2.888-0.01
		c1.891-0.083,1.943-0.111,1.517-2.095c-1.289-6.01-4.724-10.43-10.087-13.371c-3.179-1.743-6.633-2.278-10.214-2.276
		c-31.553,0.009-63.106,0.004-94.659,0.012c-0.961,0-1.925,0.054-2.881,0.148c-8.035,0.785-14.725,6.336-16.969,14.061
		c-0.993,3.418-0.915,3.53,2.697,3.53C1010.532,596.368,1031.924,596.367,1053.316,596.367z"/>
	<path class="st6" d="M944.589,806.051c-0.108,1.351-0.092,2.22-0.262,3.05c-0.311,1.518,0.42,1.829,1.736,1.814
		c5.876-0.067,10.456-2.548,13.912-7.258c0.837-1.142,0.688-1.767-0.598-2.444c-8.862-4.667-12.574-12.097-11.461-21.959
		c0.162-1.436-0.118-1.897-1.549-1.907c-5.632-0.039-10.13,2.224-13.597,6.588c-1.612,2.029-1.557,2.046,0.786,3.383
		C940.996,791.565,944.641,797.988,944.589,806.051z"/>
	<path class="st7" d="M1056.383,757.875c0-8.457,0.001-16.913-0.001-25.37c0-0.749-0.013-1.498-0.03-2.247
		c-0.013-0.57-0.18-1.135-0.801-1.211c-1.369-0.168-2.853-0.51-4.065,0.258c-0.895,0.567-0.359,1.778-0.474,2.699
		c-0.013,0.105-0.002,0.214-0.002,0.321c0,17.02-0.001,34.04,0.001,51.061c0,0.749,0.002,1.499,0.038,2.247
		c0.026,0.553,0.188,1.1,0.811,1.216c1.271,0.238,2.652,0.429,3.803-0.062c1.184-0.505,0.699-1.888,0.703-2.899
		C1056.396,775.216,1056.383,766.545,1056.383,757.875z"/>
	<path class="st0" d="M1053.966,790.854c-5.673,0-11.346,0.037-17.017-0.025c-1.558-0.017-2.013,0.584-2.028,2.081
		c-0.016,1.574,0.605,2.14,2.087,2.003c0.424-0.039,0.856-0.002,1.284-0.002c10.275,0,20.55,0.001,30.824-0.001
		c0.642,0,1.284-0.017,1.926-0.022c0.926-0.006,1.262-0.484,1.343-1.392c0.195-2.181-0.108-2.621-2.365-2.635
		C1064.669,790.828,1059.317,790.851,1053.966,790.854z"/>
	<path class="st6" d="M951.467,782.827c0.294,5.891,2.866,10.768,8.145,14.086c2.635,1.656,3.204,1.406,3.319-1.799
		c0.223-6.184-2.194-11.182-7.261-14.795c-0.992-0.707-2.143-1.992-3.33-1.33C951.182,779.634,951.604,781.296,951.467,782.827z"/>
	<path class="st6" d="M940.758,805.57c-0.32-6.492-3.199-11.509-9.001-14.723c-1.743-0.966-2.012-0.835-2.244,1.06
		c-0.806,6.6,1.553,11.888,6.846,15.854c1.06,0.794,2.283,2.124,3.596,1.449C941.151,808.595,940.505,806.881,940.758,805.57z"/>
	<path class="st6" d="M1053.697,574.644c2.354,0,4.708,0.01,7.062-0.004c1.232-0.007,1.41-0.625,0.982-1.672
		c-1.192-2.914-4.503-5.08-7.91-5.126c-3.542-0.049-6.941,2.13-8.196,5.172c-0.458,1.11-0.186,1.625,1,1.63
		C1048.989,574.654,1051.343,574.647,1053.697,574.644z"/>
	<path class="st4" d="M158.23,535.927c1.322,0.247,1.863-0.886,2.609-1.558c4.049-3.647,8.04-7.358,12.072-11.024
		c1.647-1.497,1.699-1.496,3.191,0.126c9.257,10.068,18.486,20.162,27.768,30.208c1.002,1.084,1.162,1.737-0.052,2.816
		c-4.313,3.832-8.51,7.794-12.778,11.677c-1.594,1.45-1.657,1.44-3.24-0.28c-7.02-7.625-14.022-15.267-21.03-22.904
		c-2.312-2.519-4.622-5.04-6.938-7.556c-0.431-0.468-0.843-0.992-1.601-0.863C158.23,536.355,158.23,536.141,158.23,535.927z"/>
	<path class="st0" d="M421.587,815.342c0.191-4.909-0.987-4.426,4.388-4.429c24.715-0.015,49.431-0.007,74.146-0.007
		c0.214,0,0.428-0.005,0.642,0.001c3.655,0.108,3.898-0.881,3.666,3.794c-0.011,0.213,0.012,0.427,0.019,0.641
		C476.828,815.342,449.208,815.342,421.587,815.342z"/>
	<path class="st0" d="M654.754,815.342c-0.163-0.388-0.428-0.765-0.473-1.167c-0.345-3.078-0.19-3.264,2.897-3.265
		c25.608-0.007,51.215-0.004,76.823-0.004c0.427,0,0.857,0.039,1.28-0.002c1.418-0.14,1.914,0.56,1.811,1.883
		c-0.066,0.849-0.081,1.703-0.119,2.554C709.567,815.342,682.161,815.342,654.754,815.342z"/>
	<path class="st3" d="M712.916,165.363c0.669-0.014,1.022,0.406,1.381,0.795c1.522,1.651,3.035,3.311,4.554,4.966
		c7.738,8.431,15.483,16.856,23.212,25.296c1.682,1.837,1.681,1.888-0.044,3.485c-4.002,3.706-8.022,7.393-12.053,11.068
		c-1.929,1.759-1.978,1.765-3.741-0.15c-8.257-8.971-16.497-17.958-24.742-26.94c-1.013-1.103-1.997-2.233-3.032-3.314
		c-0.714-0.745-0.857-1.387-0.011-2.157c4.587-4.176,9.151-8.377,13.73-12.562C712.399,165.641,712.696,165.504,712.916,165.363z"/>
	<path class="st0" d="M477.921,332.292c-0.382-0.261-0.919-0.594-1.42-0.975c-2.723-2.07-5.435-4.155-8.153-6.23
		c-2.083-1.59-2.008-1.465-0.501-3.426c4.299-5.594,8.58-11.201,12.868-16.803c0.845-1.103,1.741-2.172,2.516-3.322
		c0.707-1.05,1.372-1.052,2.322-0.308c3.114,2.437,6.244,4.856,9.422,7.208c1.071,0.792,0.907,1.424,0.199,2.334
		c-2.954,3.796-5.86,7.629-8.785,11.448c-2.275,2.97-4.544,5.944-6.834,8.902C479.18,331.604,478.897,332.247,477.921,332.292z"/>
	<path class="st8" d="M820.602,492.742c-0.293-0.189-0.666-0.395-1.002-0.651c-3.057-2.332-6.089-4.696-9.169-6.997
		c-1.062-0.793-1.271-1.439-0.378-2.589c5.304-6.833,10.55-13.712,15.778-20.604c0.76-1.002,1.376-1.041,2.337-0.282
		c2.934,2.316,5.879,4.622,8.909,6.807c1.347,0.972,1.528,1.707,0.447,3.054c-2.939,3.665-5.742,7.439-8.597,11.172
		c-2.271,2.969-4.532,5.946-6.817,8.904C821.736,492.041,821.44,492.668,820.602,492.742z"/>
	<path class="st9" d="M508.465,250.448c-0.2-1.347,0.702-1.445,1.55-1.665c3.611-0.938,7.213-1.91,10.822-2.858
		c4.536-1.191,9.099-2.29,13.602-3.597c1.622-0.471,2.306-0.128,2.689,1.479c0.841,3.526,1.661,7.067,2.766,10.514
		c0.581,1.813-0.201,2.245-1.604,2.609c-5.985,1.55-11.965,3.121-17.946,4.687c-2.062,0.54-4.142,1.024-6.178,1.651
		c-1.508,0.464-2.327,0.277-2.732-1.484C510.549,257.941,509.448,254.149,508.465,250.448z"/>
	<path class="st0" d="M798.538,237.642c-0.085,1.255-1.072,1.257-1.851,1.463c-5.779,1.527-11.564,3.031-17.344,4.55
		c-2.271,0.597-4.547,1.178-6.801,1.834c-1.494,0.435-2.361,0.169-2.75-1.535c-0.783-3.433-1.766-6.82-2.624-10.236
		c-0.554-2.206-0.531-2.261,1.612-2.833c6.497-1.733,13.003-3.428,19.506-5.137c0.103-0.027,0.21-0.042,0.315-0.06
		c2.076-0.343,4.384-2.163,6.086-1.002c1.607,1.095,1.383,3.871,1.978,5.902c0.57,1.946,1.036,3.922,1.549,5.885
		C798.323,236.884,798.441,237.292,798.538,237.642z"/>
	<path class="st5" d="M893.834,366.208c0.058,0.762-0.173,1.254-0.956,1.449c-1.036,0.258-2.061,0.564-3.094,0.835
		c-7.232,1.898-14.463,3.803-21.7,5.681c-2.331,0.605-2.371,0.579-3.007-1.746c-0.901-3.298-1.742-6.612-2.628-9.914
		c-0.374-1.393-0.396-2.322,1.455-2.784c8.291-2.067,16.54-4.299,24.802-6.484c0.754-0.199,1.506-0.482,1.796,0.586
		C891.621,357.954,892.724,362.082,893.834,366.208z"/>
	<path class="st4" d="M813.333,400.326c-0.047-5.755,4.276-10.217,9.976-10.296c5.798-0.08,10.511,4.517,10.479,10.221
		c-0.032,5.571-4.657,10.171-10.244,10.188C817.877,410.456,813.38,406.002,813.333,400.326z M829.811,400.349
		c0.08-3.442-2.718-6.364-6.161-6.437c-3.481-0.073-6.358,2.665-6.445,6.133c-0.087,3.476,2.647,6.33,6.145,6.416
		C826.845,406.548,829.731,403.818,829.811,400.349z"/>
	<path class="st10" d="M768.405,348.222c0.065,6.231-6.248,10.36-11.901,7.702c-3.617-1.701-6.576-4.352-9.499-7.025
		c-0.745-0.682-0.636-1.219,0.083-1.816c3.047-2.529,6.117-5.039,9.834-6.536C762.489,338.303,768.343,342.244,768.405,348.222z
		 M764.389,348.448c0.115-2.977-2.84-5.265-5.646-4.293c-2.039,0.706-3.769,1.995-5.529,3.213c-0.717,0.497-0.693,0.987-0.063,1.499
		c1.662,1.35,3.343,2.686,5.352,3.493C761.287,353.479,764.272,351.475,764.389,348.448z"/>
	<path class="st10" d="M737.458,324.814c-0.139-5.979,2.082-9.12,6.514-10.165c3.552-0.837,7.4,0.933,9.198,4.232
		c1.867,3.425,1.339,7.401-1.499,9.946c-3.145,2.82-7.005,4.415-10.868,5.969c-1.117,0.449-1.567-0.203-1.798-1.142
		C738.216,330.443,737.468,327.225,737.458,324.814z M741.424,323.789c0.045,2.687,0.605,5.652,1.073,5.601
		c1.859-0.2,3.296-1.391,4.838-2.31c0.545-0.325,1.059-0.726,1.52-1.164c1.283-1.217,1.655-2.678,1.057-4.367
		c-0.635-1.792-1.93-2.773-3.778-3.006c-1.677-0.212-3.488,0.786-4.282,2.244C741.31,321.782,741.47,322.859,741.424,323.789z"/>
	<path class="st0" d="M965.446,497.001c-3.97,0.048-7.18-3.094-7.178-7.025c0.002-3.893,3.298-7.179,7.149-7.126
		c3.768,0.051,6.898,3.149,7.009,6.937C972.541,493.712,969.405,496.954,965.446,497.001z M965.252,493.041
		c1.727,0.05,3.068-1.18,3.161-2.898c0.099-1.824-1.316-3.3-3.133-3.266c-1.68,0.032-2.998,1.381-3.005,3.077
		C962.267,491.67,963.543,492.992,965.252,493.041z"/>
	<path class="st8" d="M863.562,212.663c4.068-0.039,7.101,2.948,7.098,6.991c-0.003,4.005-3.131,7.124-7.089,7.07
		c-3.79-0.052-6.899-3.119-7.001-6.905C856.464,215.889,859.578,212.702,863.562,212.663z M863.587,222.718
		c1.702,0.026,3.097-1.267,3.17-2.938c0.073-1.678-1.208-3.092-2.899-3.199c-1.8-0.114-3.379,1.335-3.372,3.094
		C860.492,221.306,861.904,222.691,863.587,222.718z"/>
	<path class="st5" d="M386.508,616.552c-0.107,0.765-0.647,0.972-1.091,1.231c-2.212,1.292-4.439,2.559-6.66,3.836
		c-9.624,5.535-19.246,11.075-28.875,16.6c-2.249,1.291-2.286,1.282-3.564-0.924c-2.784-4.804-5.499-9.648-8.338-14.419
		c-0.828-1.392-0.745-2.123,0.744-2.971c11.875-6.76,23.713-13.585,35.542-20.427c1.178-0.681,2.03-0.982,2.855,0.479
		c2.938,5.208,5.946,10.375,8.919,15.563C386.246,615.882,386.386,616.28,386.508,616.552z"/>
	<path class="st3" d="M270.917,445.145c-0.821,0.179-1.184-0.303-1.364-0.985c-1.064-4.024-2.109-8.052-3.179-12.074
		c-0.328-1.234,0.497-1.414,1.371-1.64c3.305-0.855,6.604-1.737,9.905-2.607c4.952-1.304,9.92-2.55,14.846-3.945
		c1.484-0.42,2.135-0.131,2.499,1.379c0.9,3.734,1.898,7.445,2.904,11.152c0.272,1.004,0.148,1.582-0.982,1.876
		c-8.57,2.229-17.13,4.499-25.693,6.757C271.121,445.086,271.019,445.117,270.917,445.145z"/>
	<path class="st0" d="M331.045,519.842c5.703,0.001,10.179,4.421,10.217,10.091c0.039,5.749-4.675,10.444-10.38,10.339
		c-5.601-0.104-10.118-4.739-10.076-10.34C320.848,524.287,325.359,519.842,331.045,519.842z M331.279,523.704
		c-3.396-0.122-6.433,2.674-6.597,6.073c-0.16,3.319,2.73,6.413,6.132,6.567c3.369,0.152,6.425-2.684,6.574-6.102
		C337.535,526.869,334.691,523.826,331.279,523.704z"/>
	<path class="st0" d="M303.433,568.457c0.07,3.978-3.035,7.186-6.978,7.208c-3.928,0.021-7.138-3.181-7.12-7.105
		c0.017-3.836,3.023-6.901,6.856-6.989C300.232,561.477,303.362,564.453,303.433,568.457z M299.546,568.596
		c-0.004-1.761-1.53-3.213-3.288-3.131c-1.6,0.075-3.016,1.526-3.029,3.104c-0.013,1.636,1.681,3.255,3.318,3.17
		C298.119,571.658,299.549,570.158,299.546,568.596z"/>
	<path class="st3" d="M517.381,586.361c-0.022,4.009-3.159,7.073-7.157,6.991c-3.838-0.079-6.886-3.123-6.942-6.934
		c-0.057-3.891,3.164-7.186,7.048-7.212C514.248,579.181,517.404,582.383,517.381,586.361z M510.536,583.227
		c-1.658-0.079-3.171,1.219-3.314,2.843c-0.155,1.758,1.313,3.312,3.135,3.318c1.714,0.006,3.079-1.296,3.127-2.981
		C513.53,584.736,512.206,583.307,510.536,583.227z"/>
	<path class="st0" d="M642.907,422.95c-14.92-0.019-25.049-7.247-28.493-17.321c-0.138-0.404-0.31-0.813-0.349-1.231
		c-0.084-0.917,0.165-1.718,1.143-2.035c0.889-0.288,1.742-0.172,2.245,0.694c0.48,0.827,0.81,1.738,1.242,2.594
		c4.376,8.657,11.117,13.707,21.111,13.399c6.98-0.215,12.351-3.667,16.576-9.063c0.592-0.756,1.101-1.577,1.689-2.336
		c0.685-0.884,1.613-1.113,2.547-0.528c0.911,0.571,1.211,1.461,0.678,2.495c-0.195,0.379-0.395,0.76-0.636,1.11
		C655.355,418.438,648.226,422.873,642.907,422.95z"/>
	<path class="st0" d="M688.454,390.791c4.086-0.029,7.374,3.253,7.317,7.303c-0.055,3.893-3.311,7.132-7.204,7.167
		c-3.994,0.036-7.398-3.389-7.332-7.377C681.301,393.95,684.487,390.819,688.454,390.791z"/>
	<path class="st0" d="M591.45,403.734c-3.972-0.04-7.144-3.171-7.195-7.101c-0.053-4.042,3.23-7.274,7.353-7.24
		c3.998,0.033,7.138,3.129,7.178,7.075C598.826,400.546,595.565,403.776,591.45,403.734z"/>
	<path class="st0" d="M636.901,401.359c-0.081,1.158-1.063,1.846-2.271,1.61c-0.78-0.152-1.302-0.699-1.873-1.174
		c-4.021-3.349-8.041-6.7-12.061-10.05c-0.246-0.205-0.509-0.395-0.731-0.623c-1.529-1.571-1.393-2.779,0.573-3.725
		c1.823-0.877,3.734-1.574,5.609-2.341c3.16-1.291,6.32-2.583,9.488-3.855c0.688-0.276,1.395-0.56,2.12-0.68
		c0.936-0.155,1.698,0.255,2.03,1.176c0.33,0.917,0.013,1.714-0.794,2.219c-0.627,0.392-1.327,0.678-2.015,0.961
		c-3.057,1.261-6.125,2.496-9.182,3.755c-3.142,1.293-3.145,1.308-0.657,3.391c2.784,2.331,5.576,4.653,8.373,6.968
		C636.267,399.617,636.985,400.247,636.901,401.359z"/>
	<path class="st0" d="M610.074,384.289c-0.003,1.474-1.468,2.405-2.728,1.712c-0.635-0.35-1.128-0.963-1.67-1.474
		c-6.769-6.374-15.748-7.058-23.447-1.784c-2.325,1.592-3.249,1.676-4.068,0.367c-0.711-1.136-0.252-2.047,1.795-3.554
		c8.571-6.314,20.973-5.377,28.473,2.158C609.177,382.465,610.001,383.184,610.074,384.289z"/>
	<path class="st0" d="M691.004,376.747c7.606,0.429,14.213,4.244,18.442,11.943c0.205,0.374,0.386,0.763,0.552,1.156
		c0.857,2.032,0.708,3.038-0.522,3.606c-1.201,0.555-2.11,0.081-3.007-1.99c-3.334-7.702-12.613-12.861-21.887-10.007
		c-0.408,0.126-0.82,0.256-1.24,0.318c-1.039,0.153-1.977-0.036-2.316-1.178c-0.369-1.239,0.218-2.102,1.365-2.516
		C684.821,377.203,687.334,376.732,691.004,376.747z"/>
	<path class="st0" d="M751.668,407.325c0.06,5.695-4.984,10.888-10.278,10.607c-1.201-0.064-2.177-0.473-2.29-1.754
		c-0.109-1.238,0.667-1.968,1.881-2.19c0.315-0.058,0.648-0.028,0.955-0.107c0.616-0.159,1.25-0.3,1.825-0.562
		c2.554-1.165,4.076-3.786,3.808-6.475c-0.276-2.771-2.185-5.065-4.848-5.766c-0.72-0.19-1.489-0.203-2.2-0.414
		c-0.904-0.268-1.469-0.952-1.434-1.9c0.041-1.114,0.776-1.735,1.843-1.881c0.517-0.071,1.064-0.005,1.588,0.064
		C747.694,397.63,751.612,402.082,751.668,407.325z"/>
	<path class="st0" d="M536.573,408.236c-0.014-6.113,3.462-10.473,8.353-11.504c0.823-0.174,1.708-0.204,2.547-0.123
		c0.965,0.093,1.516,0.81,1.609,1.733c0.094,0.94-0.367,1.678-1.29,1.972c-0.604,0.192-1.27,0.182-1.888,0.341
		c-3.198,0.823-5.331,3.378-5.361,6.384c-0.03,3.025,2.058,5.597,5.252,6.445c0.515,0.137,1.048,0.207,1.574,0.296
		c1.129,0.19,1.725,0.906,1.661,1.996c-0.074,1.259-0.894,1.918-2.139,1.905c-2.562-0.026-4.823-0.938-6.729-2.618
		C537.792,412.971,536.611,410.297,536.573,408.236z"/>
	<path class="st0" d="M1036.445,646.384c2.355-0.002,4.717-0.118,7.062,0.036c1.824,0.12,2.681-0.54,3.204-2.285
		c1.382-4.607,2.958-9.156,4.423-13.74c0.379-1.187,0.761-2.111,2.333-2.101c1.504,0.01,2.304,0.438,2.765,1.965
		c1.327,4.4,2.813,8.753,4.25,13.12c0.985,2.993,0.995,2.997,4.212,3.002c4.602,0.007,9.206,0.051,13.807-0.024
		c1.399-0.023,2.148,0.419,2.571,1.776c0.425,1.366,0.017,2.161-1.114,2.947c-3.953,2.748-7.805,5.643-11.78,8.358
		c-1.467,1.002-1.906,1.913-1.26,3.694c1.641,4.52,3.011,9.138,4.549,13.697c0.466,1.38,0.35,2.316-0.959,3.266
		c-1.266,0.919-2.057,0.533-3.089-0.233c-3.953-2.933-7.988-5.756-11.903-8.737c-1.339-1.019-2.312-1.019-3.647-0.009
		c-3.839,2.905-7.785,5.668-11.665,8.519c-1.088,0.799-1.965,1.398-3.38,0.344c-1.351-1.007-1.291-1.986-0.836-3.323
		c1.411-4.15,2.771-8.318,4.132-12.485c1.063-3.253,1.052-3.259-1.633-5.186c-3.651-2.621-7.291-5.257-10.965-7.844
		c-1.045-0.735-1.7-1.395-1.253-2.88c0.466-1.546,1.331-1.943,2.794-1.897C1031.52,646.441,1033.983,646.386,1036.445,646.384z"/>
	<path class="st6" d="M1065.895,673.384l-0.06,0.085c0.24-0.894-0.168-1.67-0.435-2.478c-0.903-2.74-1.801-5.481-2.678-8.229
		c-0.91-2.851-0.65-3.681,1.755-5.435c2.419-1.764,4.885-3.464,7.292-5.244c0.536-0.396,1.597-0.633,1.277-1.521
		c-0.225-0.625-1.137-0.316-1.74-0.321c-3.102-0.026-6.204,0.009-9.305-0.019c-2.853-0.026-3.544-0.52-4.438-3.17
		c-1.058-3.138-2.061-6.295-3.119-9.433c-0.144-0.429-0.038-1.203-0.854-1.052c-0.47,0.086-0.534,0.596-0.665,0.996
		c-1.031,3.148-2.048,6.3-3.105,9.439c-0.905,2.685-1.592,3.193-4.387,3.219c-3.422,0.032-6.845,0.011-10.267,0.021
		c-0.413,0.001-0.936-0.022-0.974,0.524c-0.016,0.224,0.323,0.529,0.566,0.706c2.424,1.758,4.861,3.496,7.294,5.241
		c3.508,2.516,3.647,2.925,2.344,6.894c-0.933,2.842-1.872,5.682-2.803,8.525c-0.132,0.402-0.242,0.882,0.181,1.112
		c0.189,0.103,0.623-0.092,0.866-0.264c2.093-1.485,4.184-2.973,6.245-4.502c5.014-3.721,4.728-3.499,9.634-0.014
		C1060.928,670.173,1063.012,672.393,1065.895,673.384z"/>
	<g>
		<path class="st0" d="M308.198,169.016c3.426,0,6.852,0,10.277,0c3.517,0.634,7.102,0.79,10.605,1.556
			c1.004,0.22,1.589,0.654,2.068,1.508c1.621,2.89,3.299,5.749,4.95,8.622c0.348,0.606,0.634,1.164,1.533,1.152
			c3.638-0.048,7.278-0.033,10.917-0.011c0.997,0.006,0.923-0.388,0.522-1.052c-0.663-1.097-1.304-2.209-1.924-3.331
			c-0.11-0.199-0.424-0.453-0.191-0.675c0.213-0.202,0.492,0.041,0.721,0.162c1.464,0.775,2.934,1.538,4.387,2.331
			c1.257,0.686,2.296,1.844,3.501,2.406c2.371,1.107,4.251,2.809,6.339,4.257c0.197,0.137,0.56,0.278,0.415,0.57
			c-0.067,0.134-0.462,0.136-0.71,0.141c-0.802,0.017-1.607,0.041-2.408-0.002c-0.927-0.049-0.989,0.275-0.559,0.997
			c1.068,1.791,2.093,3.607,3.148,5.405c0.919,1.566,1.516,3.629,2.878,4.542c1.439,0.965,3.633,0.271,5.496,0.286
			c4.664,0.037,4.665,0.012,7.516,3.669c0.066,0.084,0.145,0.161,0.195,0.254c0.14,0.261,0.566,0.466,0.321,0.798
			c-0.106,0.144-0.489,0.11-0.746,0.111c-2.836,0.007-5.673,0.04-8.509-0.013c-1.164-0.022-1.574,0.111-0.837,1.33
			c1.77,2.926,3.461,5.902,5.124,8.891c0.454,0.816,1.015,1.07,1.916,1.05c2.407-0.055,4.816-0.019,7.224-0.019
			c4.051,0,4,0.028,5.897,3.536c0.701,1.296,0.199,1.32-0.89,1.304c-3.103-0.046-6.209,0.03-9.311-0.038
			c-1.301-0.029-1.295,0.32-0.709,1.3c1.782,2.982,3.52,5.992,5.22,9.022c0.394,0.703,0.844,0.971,1.641,0.951
			c1.979-0.05,3.96-0.016,5.94-0.016c3.801,0,3.769,0.009,4.81,3.754c0.24,0.864,0.15,1.107-0.778,1.086
			c-2.354-0.052-4.709,0.01-7.063-0.029c-0.962-0.016-1.132,0.217-0.624,1.065c1.264,2.109,2.683,4.161,3.648,6.405
			c1.278,2.972,3.133,4.506,6.45,3.78c0.051-0.011,0.108,0.007,0.16-0.002c0.821-0.133,1.166,0.282,1.232,1.046
			c0.042,0.479,0.109,0.956,0.169,1.433c0.275,2.187,0.276,2.191-1.906,2.342c-0.481,0.033-1.134-0.041-0.644,0.735
			c1.191,1.885,2.039,3.979,3.48,5.711c0,2.141,0,4.282,0,6.423c-0.076,0.47-0.249,0.949-0.211,1.41
			c0.122,1.457-0.475,1.871-1.92,1.818c-3.153-0.116-6.315,0.029-9.47-0.064c-1.537-0.045-1.431,0.399-0.775,1.462
			c1.261,2.047,2.625,4.066,3.585,6.256c1.19,2.714,2.828,4.244,5.935,3.549c0.102-0.023,0.214,0.007,0.32,0
			c0.581-0.037,0.845,0.273,0.625,0.777c-0.593,1.359,0.214,3.27-1.648,4.139c-0.355,0.166-0.016,0.482,0.091,0.654
			c0.279,0.449,0.316,0.898,0.169,1.381c-0.451,1.481-0.89,2.966-1.374,4.437c-0.084,0.255-0.053,0.736-0.485,0.686
			c-0.189-0.022-0.377-0.34-0.505-0.558c-1.107-1.892-2.236-3.772-3.279-5.698c-0.414-0.764-0.917-1.026-1.774-1.015
			c-3.478,0.045-6.957,0.043-10.435,0.004c-1.013-0.012-1.243,0.184-0.682,1.126c1.778,2.985,3.534,5.983,5.219,9.021
			c0.488,0.881,1.064,1.151,2.031,1.124c2.353-0.066,4.709,0.004,7.063-0.034c0.831-0.013,1.083,0.221,0.69,0.991
			c-0.145,0.285-0.319,0.569-0.396,0.875c-0.598,2.355-1.973,3.471-4.488,2.986c-1.181-0.228-1.549,0.299-0.721,1.229
			c1.795,2.018,1.452,3.876-0.244,5.714c-0.18,0.195-0.344,0.416-0.466,0.651c-0.545,1.044-0.893,0.675-1.333-0.111
			c-1.226-2.193-2.517-4.35-3.755-6.537c-0.334-0.59-0.649-0.992-1.447-0.981c-3.638,0.047-7.278,0.037-10.916,0.01
			c-0.941-0.007-0.971,0.297-0.548,1.009c1.01,1.7,1.97,3.43,2.97,5.136c0.972,1.658,1.61,3.85,3.056,4.802
			c1.522,1.001,3.844,0.201,5.813,0.302c1.056,0.054,2.85-0.375,3.007,0.177c0.273,0.96-1.072,1.766-1.76,2.61
			c-0.922,1.131-1.712,2.494-3.616,2.069c-0.793-0.177-0.512,0.451-0.26,0.791c0.478,0.643,0.358,1.118-0.232,1.628
			c-0.768,0.664-1.501,1.375-2.188,2.121c-0.522,0.567-0.827,0.476-1.173-0.152c-0.645-1.169-1.377-2.293-1.979-3.483
			c-0.366-0.722-0.83-0.969-1.63-0.96c-3.478,0.04-6.958,0.068-10.434-0.008c-1.434-0.031-1.155,0.458-0.652,1.314
			c1.735,2.949,3.425,5.923,5.141,8.883c0.285,0.492,0.472,1.113,1.244,1.072c0.184-0.01,0.374,0.1,0.562,0.155
			c-0.134,0.156-0.239,0.359-0.405,0.46c-3.677,2.23-7.174,4.947-11.914,4.22c-0.889-0.136-1.816-0.02-2.726-0.019
			c-1.876,0.002-1.94,0.042-0.93,1.638c0.672,1.061,0.391,1.346-0.722,1.646c-3.409,0.917-3.438,0.988-5.165-2.085
			c-0.519-0.923-1.093-1.252-2.143-1.226c-2.941,0.075-5.886,0.01-8.829,0.037c-0.781,0.007-1.907-0.384-2.257,0.201
			c-0.369,0.616,0.595,1.357,0.915,2.073c0.514,1.151,2.053,2.405,1.54,3.271c-0.465,0.785-2.373,0.171-3.636,0.284
			c-1.097,0.098-1.778-0.289-2.266-1.304c-0.601-1.249-1.372-2.416-2.052-3.628c-0.299-0.534-0.599-0.929-1.332-0.922
			c-3.692,0.035-7.385,0.025-11.077,0.008c-0.768-0.003-0.955,0.17-0.551,0.911c0.54,0.992,1.403,1.832,1.516,3.038
			c-1.247,0.017-2.395-0.461-3.589-0.712c-0.157-0.033-0.311-0.079-0.469-0.108c-1.433-0.257-2.645-0.795-3.135-2.335
			c-0.24-0.754-0.863-0.787-1.55-0.803c-1.65-0.04-3.37,0.371-4.937-0.188c-2.869-1.023-5.568-2.454-8.22-3.957
			c-0.219-0.124-0.593-0.209-0.521-0.494c0.075-0.298,0.449-0.163,0.689-0.164c3.318-0.009,6.636-0.026,9.953,0.005
			c0.995,0.009,1.275-0.198,0.708-1.158c-1.824-3.082-3.612-6.186-5.376-9.302c-0.336-0.593-0.729-0.804-1.398-0.799
			c-3.585,0.027-7.171,0.046-10.756-0.006c-1.217-0.018-1.019,0.406-0.577,1.16c1.596,2.72,3.167,5.455,4.722,8.199
			c0.241,0.425,0.78,0.816,0.379,1.43l0.022,0.015c-1.931-1.334-3.839-2.702-5.798-3.992c-2.051-1.351-3.772-2.976-4.721-5.289
			c-0.489-1.193-1.293-1.746-2.597-1.508c-0.642,0.117-1.113-0.189-1.548-0.642c-0.666-0.694-1.396-1.327-2.062-2.022
			c-0.585-0.61-1.119-1.268-1.675-1.905c0.823-0.522,1.734-0.123,2.595-0.249c0.105-0.015,0.215-0.011,0.321-0.001
			c1.142,0.113,1.122-0.339,0.634-1.168c-1.6-2.717-3.253-5.41-4.698-8.209c-0.773-1.497-1.731-2.069-3.38-1.888
			c-1.322,0.145-2.672,0.018-4.01,0.034c-0.555,0.007-1.018-0.039-1.361-0.597c-0.699-1.138-1.457-2.241-2.214-3.343
			c-0.467-0.679-0.298-0.909,0.5-0.895c1.605,0.027,3.21,0.011,4.816,0.006c1.726-0.005,1.731-0.011,0.899-1.456
			c-1.307-2.269-2.81-4.45-3.879-6.826c-1.07-2.378-2.536-3.196-5.158-3.023c-4.027,0.267-4.02,0.063-5.336-3.672
			c-0.284-0.805-0.264-1.147,0.721-1.097c1.281,0.065,2.571-0.039,3.851,0.031c1.207,0.066,1.232-0.302,0.681-1.23
			c-1.691-2.849-3.378-5.704-4.947-8.621c-0.592-1.101-1.279-1.541-2.514-1.436c-0.587,0.05-1.527,0.485-1.774-0.514
			c-0.33-1.334-0.79-2.658-0.736-4.062c0.003-0.071,0.251-0.188,0.387-0.191c1.22-0.026,0.661-0.718,0.352-1.113
			c-1.839-2.345-1.89-5.15-2.118-7.914c-0.07-0.849-0.015-1.714-0.34-2.529c0-1.499,0-2.998,0-4.496
			c3.692-0.009,7.383-0.044,11.074-0.011c1.075,0.01,1.177-0.262,0.651-1.148c-1.663-2.804-3.34-5.604-4.869-8.481
			c-0.667-1.255-1.439-1.704-2.868-1.66c-3.665,0.114-3.646,0.04-3.068-3.65c0.114-0.73,0.241-1.22,1.129-1.145
			c1.152,0.097,0.699-0.518,0.437-1.056c-0.363-0.746-1.055-1.366-0.807-2.345c0.42-1.656,0.795-3.324,1.193-4.986
			c0.07-0.294,0.025-0.731,0.439-0.728c0.164,0.001,0.354,0.365,0.484,0.591c1.447,2.497,2.9,4.991,4.316,7.506
			c0.403,0.716,0.859,1.069,1.755,1.053c3.423-0.062,6.849-0.08,10.272,0.001c1.481,0.035,1.292-0.459,0.73-1.409
			c-1.716-2.897-3.427-5.798-5.05-8.747c-0.49-0.89-1.07-1.142-2.03-1.124c-2.995,0.055-5.993-0.011-8.988,0.039
			c-0.926,0.015-1.062-0.258-0.831-1.1c1.027-3.737,1.009-3.742,4.868-3.742c0.268,0,0.535,0,0.803,0
			c2.722,0,2.694,0.016,1.359-2.387c-0.851-1.531-2.493-3.004-2.343-4.606c0.155-1.656,1.734-3.133,2.442-4.794
			c1.492-3.501,3.908-4.855,7.751-4.343c2.746,0.366,2.785,0.071,1.37-2.399c-1.862-3.25-1.836-3.225,0.836-5.983
			c0.671-0.692,0.945-0.758,1.439,0.141c1.337,2.436,2.781,4.812,4.14,7.236c0.4,0.714,0.828,1.111,1.732,1.097
			c3.477-0.055,6.956-0.057,10.433-0.003c1.211,0.019,1.236-0.33,0.692-1.25c-1.739-2.945-3.461-5.901-5.115-8.894
			c-0.483-0.875-1.058-1.162-2.031-1.131c-2.191,0.071-4.387,0.034-6.58,0.012c-0.459-0.005-1.142,0.254-1.329-0.161
			c-0.208-0.46,0.466-0.729,0.795-1.036c2.442-2.28,5.313-4.008,7.898-6.101c1.157-0.937,1.746-0.689,2.367,0.585
			c0.379,0.778,0.542,1.917,1.865,1.907c3.638-0.028,7.277-0.022,10.915-0.001c0.924,0.005,0.996-0.326,0.573-1.04
			c-0.845-1.425-1.664-2.865-2.49-4.301c-1.858-3.23-1.844-3.193,1.742-4.359c0.897-0.292,1.322-0.152,1.775,0.667
			c1.474,2.665,3.053,5.272,4.535,7.933c0.441,0.792,0.948,1.13,1.886,1.115c3.423-0.057,6.848-0.049,10.272-0.007
			c1.071,0.013,1.364-0.169,0.745-1.208c-1.805-3.03-3.563-6.089-5.287-9.166c-0.404-0.722-0.907-0.913-1.676-0.89
			c-1.604,0.047-3.21,0.017-4.815,0.011c-0.211-0.001-0.422-0.042-0.632-0.065c0.104-0.339,0.414-0.234,0.635-0.269
			C302.827,169.839,305.513,169.429,308.198,169.016z M253.452,250.893c-1.762,0-3.524,0.029-5.285-0.012
			c-0.931-0.021-1.317,0.092-0.713,1.104c1.831,3.067,3.621,6.16,5.371,9.274c0.41,0.729,0.927,0.886,1.685,0.88
			c3.417-0.028,6.834-0.04,10.25,0.004c1.105,0.014,1.479-0.134,0.797-1.269c-1.784-2.972-3.506-5.981-5.197-9.006
			c-0.426-0.762-0.936-1.022-1.784-0.992C256.87,250.935,255.161,250.893,253.452,250.893z M299.794,234.835
			c-1.766,0-3.534,0.044-5.298-0.016c-1.092-0.037-1.153,0.283-0.646,1.143c1.793,3.039,3.563,6.092,5.294,9.166
			c0.392,0.697,0.852,0.965,1.649,0.957c3.478-0.037,6.958-0.051,10.435,0.003c1.219,0.019,1.226-0.34,0.688-1.251
			c-1.768-2.991-3.52-5.993-5.208-9.029c-0.431-0.776-0.935-1.018-1.778-0.99C303.221,234.874,301.507,234.835,299.794,234.835z
			 M305.699,278.185c2.153,0,3.92-0.034,5.684,0.013c1.021,0.027,1.071-0.318,0.615-1.098c-1.833-3.139-3.651-6.287-5.449-9.446
			c-0.305-0.536-0.689-0.716-1.29-0.713c-3.639,0.021-7.278,0.029-10.917-0.002c-0.91-0.008-1.007,0.262-0.572,0.992
			c0.93,1.561,1.817,3.148,2.737,4.716c1.054,1.797,1.733,4.166,3.295,5.216C301.445,278.967,303.958,278.044,305.699,278.185z
			 M333.841,229.938c0,0.024,0,0.048,0,0.073c1.761,0,3.523-0.04,5.283,0.015c1.123,0.035,1.131-0.319,0.633-1.167
			c-1.812-3.078-3.588-6.177-5.352-9.283c-0.328-0.577-0.724-0.817-1.4-0.812c-3.629,0.028-7.258,0.03-10.887,0.002
			c-0.951-0.007-0.961,0.298-0.537,1.005c0.959,1.6,1.844,3.245,2.81,4.841c1.073,1.774,1.615,4.318,3.303,5.146
			C329.369,230.58,331.762,229.938,333.841,229.938z M318.344,266.952c-1.762,0-3.525,0.035-5.286-0.014
			c-0.988-0.027-1.263,0.153-0.689,1.118c1.8,3.025,3.56,6.074,5.283,9.143c0.422,0.751,0.915,1.019,1.775,1.007
			c3.417-0.049,6.835-0.053,10.252-0.002c1.158,0.017,1.422-0.194,0.775-1.275c-1.779-2.975-3.51-5.981-5.198-9.008
			c-0.429-0.77-0.944-1.013-1.786-0.986C321.763,266.991,320.053,266.952,318.344,266.952z M342.883,213.953
			c1.762,0,3.525-0.04,5.286,0.015c1.106,0.034,1.496-0.132,0.809-1.278c-1.783-2.973-3.496-5.987-5.204-9.004
			c-0.378-0.669-0.797-0.998-1.622-0.987c-3.523,0.048-7.048,0.035-10.572,0.01c-0.888-0.006-1.336,0.037-0.711,1.082
			c1.833,3.067,3.609,6.169,5.363,9.282c0.402,0.714,0.915,0.915,1.686,0.894C339.572,213.921,341.228,213.952,342.883,213.953z
			 M306.042,310.302c1.713,0,3.426-0.039,5.137,0.014c1.046,0.032,1.394-0.15,0.766-1.206c-1.803-3.032-3.559-6.093-5.294-9.164
			c-0.359-0.636-0.765-0.902-1.509-0.894c-3.532,0.036-7.064,0.035-10.596,0.003c-0.928-0.009-1.314,0.1-0.723,1.099
			c1.824,3.083,3.609,6.188,5.374,9.305c0.366,0.646,0.822,0.874,1.547,0.857C302.509,310.274,304.276,310.302,306.042,310.302z
			 M318.42,299.068c-1.816,0-3.632,0.028-5.447-0.012c-0.917-0.02-1.163,0.162-0.638,1.048c1.822,3.074,3.613,6.167,5.365,9.281
			c0.396,0.703,0.863,0.941,1.651,0.933c3.471-0.037,6.942-0.047,10.413,0.002c1.107,0.015,1.318-0.209,0.724-1.206
			c-1.666-2.794-3.347-5.585-4.855-8.465c-0.677-1.293-1.497-1.722-2.889-1.607C321.311,299.16,319.862,299.068,318.42,299.068z
			 M328.083,315.127c-2.19,0-4.006,0.023-5.821-0.01c-0.871-0.016-1.206,0.109-0.656,1.037c1.851,3.118,3.656,6.263,5.452,9.413
			c0.329,0.576,0.719,0.814,1.396,0.808c3.577-0.03,7.155-0.043,10.732,0.002c1.225,0.015,1.033-0.43,0.578-1.189
			c-0.931-1.555-1.796-3.15-2.716-4.712c-1.026-1.743-1.706-4.041-3.23-5.042C332.217,314.38,329.778,315.25,328.083,315.127z
			 M309.093,186.66c-1.816,0-3.634,0.04-5.448-0.016c-1.032-0.032-1.063,0.273-0.596,1.067c1.813,3.081,3.611,6.171,5.361,9.287
			c0.4,0.713,0.885,0.919,1.661,0.911c3.472-0.035,6.945-0.051,10.416,0.005c1.199,0.019,1.233-0.305,0.686-1.23
			c-1.792-3.032-3.551-6.083-5.273-9.155c-0.404-0.72-0.913-0.905-1.68-0.884C312.512,186.692,310.802,186.66,309.093,186.66z
			 M352.389,326.361c1.762,0,3.524-0.011,5.286,0.005c0.769,0.007,1.322-0.015,0.728-1.025c-1.866-3.172-3.701-6.362-5.515-9.563
			c-0.32-0.565-0.744-0.66-1.315-0.658c-3.577,0.014-7.155,0.032-10.732-0.009c-1.053-0.012-1.179,0.224-0.643,1.125
			c1.798,3.026,3.558,6.075,5.279,9.146c0.426,0.76,0.939,1.025,1.788,0.996C348.97,326.32,350.68,326.361,352.389,326.361z
			 M271.996,250.893c-1.761,0-3.523,0.029-5.283-0.012c-0.931-0.021-1.302,0.09-0.701,1.099c1.827,3.068,3.596,6.172,5.355,9.28
			c0.359,0.634,0.789,0.889,1.526,0.882c3.522-0.033,7.044-0.033,10.566-0.003c0.963,0.008,1.298-0.143,0.71-1.133
			c-1.824-3.07-3.607-6.165-5.359-9.277c-0.369-0.656-0.81-0.867-1.531-0.85C275.519,250.922,273.757,250.893,271.996,250.893z
			 M314.817,262.127c2.137,0,3.899-0.037,5.658,0.014c1.04,0.031,1.385-0.132,0.751-1.193c-1.803-3.021-3.546-6.078-5.281-9.138
			c-0.348-0.613-0.72-0.942-1.484-0.934c-3.575,0.039-7.151,0.047-10.726,0.001c-1.224-0.016-1.031,0.442-0.584,1.188
			c0.93,1.555,1.818,3.135,2.735,4.698c1.024,1.746,1.677,4.07,3.197,5.065C310.677,262.873,313.122,262.013,314.817,262.127z
			 M346.157,250.893c-1.819,0-3.638,0.019-5.457-0.009c-0.762-0.012-1.134,0.069-0.626,0.935c1.868,3.18,3.708,6.376,5.528,9.582
			c0.347,0.611,0.816,0.738,1.454,0.734c3.478-0.018,6.956-0.033,10.433,0.006c1.06,0.012,1.392-0.196,0.781-1.229
			c-1.794-3.036-3.562-6.089-5.295-9.161c-0.366-0.648-0.789-0.892-1.522-0.873C349.689,250.925,347.923,250.893,346.157,250.893z
			 M364.876,250.893c-1.814,0-3.631,0.054-5.442-0.019c-1.235-0.05-1.19,0.323-0.657,1.223c1.793,3.027,3.542,6.08,5.275,9.141
			c0.355,0.628,0.77,0.909,1.513,0.903c3.575-0.033,7.151-0.038,10.726-0.001c1.079,0.011,1.005-0.391,0.584-1.114
			c-1.798-3.085-3.597-6.171-5.354-9.279c-0.363-0.642-0.79-0.889-1.521-0.869C368.292,250.925,366.584,250.894,364.876,250.893z
			 M389.443,262.127c1.762,0,3.525-0.039,5.285,0.015c1.045,0.032,1.201-0.241,0.672-1.141c-1.813-3.079-3.593-6.177-5.351-9.288
			c-0.367-0.65-0.835-0.84-1.552-0.834c-3.524,0.03-7.048,0.04-10.571-0.003c-1.046-0.013-1.209,0.221-0.668,1.132
			c1.796,3.027,3.568,6.069,5.284,9.141c0.429,0.767,0.927,1.025,1.776,0.995C386.024,262.085,387.734,262.128,389.443,262.127z
			 M263.067,266.952c-2.2,0-4.016,0.028-5.83-0.012c-0.932-0.02-0.97,0.259-0.541,0.991c1.833,3.128,3.638,6.274,5.431,9.426
			c0.322,0.566,0.692,0.848,1.382,0.842c3.63-0.03,7.261-0.031,10.891-0.002c0.943,0.007,0.973-0.314,0.556-1.016
			c-0.925-1.559-1.81-3.142-2.728-4.706c-1.051-1.791-1.731-4.147-3.287-5.199C267.305,266.169,264.802,267.1,263.067,266.952z
			 M315.266,326.361c1.761,0,3.523-0.025,5.283,0.01c0.922,0.019,1.322-0.086,0.714-1.109c-1.825-3.07-3.594-6.173-5.349-9.284
			c-0.361-0.64-0.795-0.873-1.526-0.866c-3.522,0.034-7.044,0.034-10.566,0.002c-0.942-0.009-1.307,0.123-0.721,1.113
			c1.819,3.073,3.602,6.168,5.36,9.276c0.362,0.639,0.789,0.891,1.522,0.872C311.743,326.329,313.505,326.36,315.266,326.361z
			 M343.029,310.302c1.814,0,3.629-0.028,5.442,0.011c0.979,0.021,1.103-0.249,0.613-1.082c-1.837-3.124-3.642-6.267-5.425-9.421
			c-0.342-0.605-0.784-0.756-1.43-0.752c-3.575,0.022-7.15,0.03-10.725-0.002c-0.968-0.009-1.109,0.22-0.609,1.061
			c1.552,2.611,3.18,5.191,4.52,7.911c0.909,1.846,2.064,2.607,4.097,2.306C340.66,310.163,341.855,310.303,343.029,310.302z
			 M374.026,266.952c-1.815,0-3.63,0.032-5.444-0.013c-0.978-0.024-1.099,0.254-0.619,1.071c1.809,3.08,3.6,6.17,5.354,9.281
			c0.396,0.702,0.884,0.918,1.663,0.91c3.469-0.037,6.939-0.049,10.407,0.002c1.168,0.017,1.261-0.272,0.695-1.225
			c-1.796-3.026-3.555-6.074-5.27-9.146c-0.404-0.724-0.895-0.916-1.663-0.895C377.443,266.983,375.734,266.952,374.026,266.952z
			 M272.006,283.01c-1.761,0-3.523,0.026-5.283-0.011c-0.902-0.019-1.332,0.054-0.716,1.089c1.827,3.069,3.595,6.172,5.355,9.28
			c0.357,0.63,0.779,0.898,1.52,0.891c3.522-0.034,7.044-0.031,10.566-0.004c0.93,0.007,1.33-0.105,0.725-1.123
			c-1.825-3.069-3.606-6.166-5.36-9.277c-0.367-0.651-0.799-0.878-1.525-0.859C275.529,283.04,273.767,283.01,272.006,283.01z
			 M309.271,283.01c-1.814,0-3.629,0.028-5.443-0.012c-0.921-0.02-1.327,0.099-0.731,1.107c1.819,3.073,3.602,6.168,5.361,9.276
			c0.361,0.637,0.784,0.885,1.519,0.878c3.522-0.034,7.045-0.052,10.566,0.005c1.285,0.021,1.146-0.383,0.636-1.247
			c-1.787-3.031-3.535-6.084-5.262-9.149c-0.359-0.638-0.788-0.893-1.523-0.872C312.687,283.043,310.979,283.01,309.271,283.01z
			 M327.674,283.01c-1.815,0-3.63,0.031-5.443-0.013c-0.98-0.024-1.101,0.231-0.607,1.066c1.819,3.073,3.611,6.163,5.359,9.277
			c0.399,0.711,0.875,0.927,1.655,0.919c3.469-0.036,6.938-0.048,10.407,0.003c1.167,0.017,1.262-0.275,0.696-1.227
			c-1.769-2.979-3.513-5.974-5.184-9.009c-0.467-0.848-1.038-1.059-1.92-1.031C330.984,283.047,329.328,283.01,327.674,283.01z
			 M370.866,294.244c1.708,0,3.417-0.039,5.123,0.014c1.098,0.034,1.499-0.128,0.808-1.276c-1.787-2.968-3.509-5.975-5.211-8.993
			c-0.381-0.674-0.781-1.009-1.604-0.999c-3.521,0.045-7.044,0.039-10.566,0.005c-0.937-0.009-1.3,0.112-0.716,1.099
			c1.819,3.073,3.599,6.17,5.36,9.277c0.359,0.634,0.787,0.904,1.524,0.886C367.343,294.214,369.105,294.244,370.866,294.244z
			 M324.04,181.836c2.193,0,4.008-0.022,5.822,0.01c0.851,0.015,1.231-0.108,0.684-1.037c-1.838-3.124-3.645-6.267-5.435-9.419
			c-0.332-0.584-0.733-0.805-1.403-0.8c-3.576,0.028-7.152,0.045-10.727-0.005c-1.202-0.017-1.062,0.411-0.602,1.178
			c0.933,1.554,1.822,3.134,2.741,4.696c1.026,1.744,1.684,4.047,3.202,5.065C319.914,182.591,322.353,181.703,324.04,181.836z
			 M327.476,186.66c-1.761,0-3.523,0.035-5.282-0.014c-1.005-0.028-1.072,0.259-0.597,1.066c1.839,3.123,3.656,6.26,5.431,9.42
			c0.389,0.692,0.906,0.773,1.582,0.769c3.468-0.016,6.937-0.04,10.405,0.01c1.179,0.017,1.248-0.298,0.693-1.238
			c-1.789-3.028-3.539-6.08-5.261-9.147c-0.402-0.715-0.92-0.902-1.689-0.882C330.998,186.691,329.236,186.66,327.476,186.66z
			 M346.612,186.66c-2.192,0-4.009,0.043-5.824-0.016c-1.111-0.036-1.116,0.285-0.615,1.133c1.794,3.03,3.549,6.083,5.281,9.15
			c0.384,0.679,0.822,0.993,1.635,0.984c3.525-0.04,7.051-0.047,10.576,0c1.166,0.016,1.106-0.389,0.629-1.184
			c-0.933-1.555-1.824-3.136-2.744-4.699c-1.027-1.746-1.684-4.065-3.205-5.066C350.751,185.913,348.306,186.779,346.612,186.66z
			 M262.691,202.718c-1.766,0-3.534,0.043-5.298-0.016c-1.096-0.037-1.151,0.27-0.637,1.14c1.796,3.037,3.559,6.093,5.29,9.168
			c0.39,0.693,0.842,0.969,1.646,0.959c3.479-0.041,6.958-0.053,10.437,0.002c1.212,0.019,1.239-0.329,0.696-1.25
			c-1.766-2.992-3.511-5.999-5.204-9.032c-0.429-0.768-0.944-1.018-1.791-0.989C266.118,202.759,264.404,202.718,262.691,202.718z
			 M281.305,202.718c-1.819,0-3.64,0.035-5.458-0.014c-0.987-0.027-1.087,0.235-0.603,1.056c1.819,3.084,3.614,6.183,5.369,9.305
			c0.405,0.72,0.916,0.907,1.686,0.901c3.424-0.031,6.85-0.048,10.274,0.005c1.273,0.02,1.339-0.338,0.743-1.339
			c-1.748-2.94-3.455-5.905-5.128-8.889c-0.413-0.737-0.859-1.087-1.748-1.046C284.732,202.773,283.017,202.718,281.305,202.718z
			 M318.476,202.816c0-0.032,0-0.065,0-0.097c-1.869,0-3.739,0.023-5.608-0.01c-0.864-0.015-1.051,0.193-0.585,0.986
			c1.865,3.173,3.699,6.364,5.522,9.561c0.305,0.534,0.69,0.711,1.291,0.707c3.632-0.022,7.264-0.028,10.895,0.002
			c0.879,0.007,1.042-0.239,0.597-0.989c-0.979-1.652-1.903-3.337-2.902-4.976c-1.051-1.725-1.575-4.205-3.224-5.009
			C322.828,202.193,320.5,202.816,318.476,202.816z M278.186,230.011c1.761,0,3.524-0.035,5.284,0.013
			c1.048,0.029,1.212-0.242,0.671-1.157c-1.818-3.075-3.601-6.17-5.351-9.285c-0.376-0.669-0.847-0.823-1.551-0.818
			c-3.523,0.027-7.046,0.036-10.568-0.003c-1.016-0.011-1.217,0.178-0.66,1.114c1.825,3.071,3.599,6.172,5.357,9.282
			c0.364,0.643,0.807,0.884,1.535,0.866C274.662,229.982,276.424,230.01,278.186,230.011z M315.266,230.01
			c1.819,0,3.638-0.029,5.456,0.012c0.922,0.021,0.998-0.294,0.582-1.009c-1.857-3.185-3.713-6.371-5.538-9.574
			c-0.318-0.559-0.737-0.673-1.314-0.67c-3.584,0.015-7.168,0.028-10.752-0.006c-0.98-0.009-1.108,0.262-0.627,1.078
			c1.815,3.086,3.611,6.184,5.381,9.296c0.358,0.629,0.773,0.909,1.517,0.888C311.735,229.977,313.501,230.01,315.266,230.01z
			 M346.635,218.777c-2.248,0-4.118,0.031-5.986-0.013c-0.926-0.022-0.97,0.26-0.55,0.98c1.83,3.132,3.637,6.277,5.437,9.427
			c0.318,0.557,0.69,0.858,1.385,0.853c3.631-0.029,7.263-0.029,10.894-0.003c0.939,0.007,0.979-0.31,0.556-1.022
			c-0.953-1.606-1.858-3.239-2.802-4.85c-1.023-1.747-1.687-4.055-3.208-5.064C350.766,218.025,348.324,218.902,346.635,218.777z
			 M364.736,218.777c-1.814,0-3.63,0.036-5.443-0.014c-0.995-0.028-1.081,0.262-0.61,1.064c1.809,3.079,3.596,6.172,5.36,9.277
			c0.352,0.62,0.749,0.928,1.502,0.921c3.575-0.034,7.151-0.035,10.726-0.002c1.008,0.009,1.075-0.312,0.616-1.097
			c-1.829-3.129-3.644-6.267-5.433-9.419c-0.343-0.604-0.791-0.753-1.435-0.741C368.259,218.798,366.497,218.777,364.736,218.777z
			 M263.182,234.835c-2.19,0-4.006,0.019-5.822-0.009c-0.825-0.013-1.241,0.051-0.668,1.016c1.851,3.119,3.653,6.267,5.442,9.422
			c0.331,0.584,0.723,0.821,1.396,0.816c3.578-0.026,7.156-0.042,10.734,0.005c1.194,0.016,1.071-0.404,0.602-1.183
			c-0.935-1.553-1.814-3.141-2.735-4.703c-1.027-1.743-1.696-4.045-3.217-5.055C267.315,234.084,264.875,234.963,263.182,234.835z
			 M336.9,234.835c-1.814,0-3.63,0.035-5.443-0.013c-1.032-0.027-1.039,0.285-0.576,1.071c1.811,3.078,3.587,6.177,5.351,9.283
			c0.351,0.619,0.763,0.916,1.514,0.908c3.575-0.036,7.151-0.036,10.726-0.003c1.06,0.01,1.026-0.354,0.583-1.112
			c-1.803-3.083-3.593-6.174-5.347-9.285c-0.363-0.644-0.793-0.885-1.525-0.865C340.423,234.867,338.661,234.835,336.9,234.835z
			 M374.033,234.835c-1.815,0-3.63,0.031-5.444-0.013c-0.955-0.023-1.122,0.229-0.631,1.065c1.81,3.079,3.6,6.17,5.355,9.281
			c0.394,0.699,0.877,0.925,1.659,0.917c3.469-0.037,6.939-0.048,10.407,0.002c1.14,0.016,1.288-0.243,0.707-1.219
			c-1.718-2.886-3.42-5.784-5.019-8.736c-0.568-1.049-1.238-1.4-2.392-1.323C377.134,234.912,375.581,234.835,374.033,234.835z
			 M290.577,250.893c-1.814,0-3.63,0.037-5.443-0.015c-0.981-0.028-1.088,0.238-0.611,1.049c1.809,3.08,3.596,6.172,5.353,9.281
			c0.391,0.693,0.87,0.943,1.66,0.935c3.468-0.038,6.937-0.05,10.405,0.002c1.195,0.018,1.246-0.34,0.708-1.254
			c-1.786-3.031-3.553-6.073-5.283-9.136c-0.362-0.641-0.772-0.898-1.508-0.878C294.1,250.926,292.338,250.894,290.577,250.893z
			 M355.415,234.835c-1.766,0-3.533,0.04-5.298-0.015c-1.022-0.032-1.223,0.195-0.676,1.121c1.823,3.083,3.606,6.19,5.37,9.307
			c0.369,0.651,0.844,0.841,1.56,0.835c3.478-0.029,6.957-0.04,10.436,0.003c1.125,0.014,1.314-0.258,0.73-1.242
			c-1.774-2.988-3.519-5.993-5.21-9.028c-0.428-0.767-0.92-1.031-1.775-0.999C358.841,234.88,357.127,234.835,355.415,234.835z
			 M327.925,250.893c-2.149,0-3.915,0.032-5.679-0.013c-0.966-0.024-1.122,0.218-0.622,1.065c1.847,3.128,3.657,6.279,5.459,9.434
			c0.297,0.519,0.642,0.763,1.263,0.759c3.637-0.024,7.275-0.026,10.912,0c0.891,0.007,1.035-0.258,0.59-1.005
			c-0.93-1.56-1.82-3.145-2.74-4.711c-1.054-1.794-1.734-4.157-3.294-5.207C332.174,250.111,329.665,251.039,327.925,250.893z
			 M281.729,299.068c-2.195,0-4.015,0.027-5.833-0.012c-0.866-0.019-1.201,0.107-0.663,1.019c1.845,3.131,3.655,6.283,5.452,9.441
			c0.334,0.586,0.756,0.801,1.421,0.796c3.531-0.024,7.063-0.044,10.593,0.006c1.319,0.019,1.126-0.5,0.648-1.304
			c-0.902-1.516-1.771-3.051-2.665-4.571c-1.029-1.748-1.688-4.07-3.212-5.073C285.874,298.319,283.426,299.188,281.729,299.068z
			 M324.21,246.069c2.142,0,3.903-0.023,5.664,0.01c0.835,0.016,1.245-0.09,0.695-1.025c-1.865-3.171-3.703-6.358-5.528-9.552
			c-0.272-0.476-0.596-0.676-1.142-0.674c-3.683,0.015-7.366,0.024-11.049-0.004c-0.965-0.007-0.949,0.312-0.53,1.011
			c0.933,1.553,1.813,3.138,2.729,4.702c1.051,1.792,1.731,4.145,3.287,5.205C319.971,246.854,322.473,245.918,324.21,246.069z
			 M355.378,202.788c0-0.023,0-0.047,0-0.07c-1.766,0-3.534,0.045-5.298-0.016c-1.139-0.04-1.101,0.329-0.618,1.151
			c1.79,3.04,3.549,6.099,5.295,9.165c0.346,0.607,0.719,0.958,1.49,0.95c3.585-0.038,7.171-0.035,10.757-0.005
			c1.06,0.009,1.036-0.375,0.587-1.125c-0.905-1.514-1.756-3.061-2.656-4.579c-1.086-1.832-1.801-4.333-3.417-5.275
			C359.963,202.077,357.463,202.788,355.378,202.788z M290.536,283.084c0-0.025,0-0.049,0-0.074c-1.761,0-3.523,0.031-5.283-0.013
			c-0.922-0.023-1.305,0.083-0.711,1.084c1.821,3.072,3.586,6.178,5.363,9.275c0.307,0.535,0.636,0.907,1.353,0.9
			c3.628-0.032,7.257-0.034,10.886-0.003c1.121,0.01,0.961-0.452,0.556-1.138c-0.921-1.561-1.813-3.139-2.735-4.699
			c-1.054-1.784-1.735-4.254-3.304-5.138C295.084,282.39,292.615,283.084,290.536,283.084z M281.614,234.835
			c-2.207,0-4.027,0.03-5.845-0.013c-0.909-0.021-0.997,0.247-0.565,0.983c1.838,3.136,3.657,6.283,5.461,9.439
			c0.325,0.569,0.715,0.841,1.399,0.835c3.585-0.027,7.171-0.031,10.756-0.001c1.021,0.009,1.083-0.345,0.621-1.122
			c-0.901-1.516-1.762-3.057-2.654-4.579c-1.054-1.797-1.733-4.157-3.292-5.218C285.857,234.048,283.349,234.986,281.614,234.835z
			 M290.371,218.777c-1.708,0-3.417,0.028-5.124-0.012c-0.904-0.021-1.323,0.06-0.715,1.084c1.824,3.071,3.6,6.171,5.352,9.284
			c0.402,0.715,0.923,0.898,1.689,0.891c3.416-0.03,6.832-0.04,10.248,0.002c1.11,0.014,1.497-0.152,0.815-1.289
			c-1.81-3.017-3.568-6.065-5.293-9.132c-0.374-0.665-0.815-0.857-1.528-0.842C294.002,218.803,292.186,218.777,290.371,218.777z
			 M355.385,267.023c0-0.024,0-0.048,0-0.072c-1.766,0-3.534,0.045-5.298-0.016c-1.117-0.038-1.123,0.304-0.629,1.145
			c1.816,3.087,3.596,6.195,5.37,9.307c0.327,0.573,0.734,0.816,1.412,0.81c3.585-0.028,7.171-0.032,10.757-0.002
			c1.043,0.009,1.056-0.354,0.598-1.12c-0.906-1.513-1.757-3.061-2.656-4.579c-1.086-1.833-1.799-4.335-3.414-5.278
			C359.97,266.312,357.47,267.023,355.385,267.023z M281.303,266.952c-1.819,0-3.639,0.039-5.457-0.015
			c-1.033-0.031-1.04,0.287-0.584,1.064c1.813,3.088,3.61,6.185,5.364,9.307c0.406,0.723,0.925,0.898,1.692,0.891
			c3.424-0.03,6.849-0.052,10.272,0.007c1.312,0.022,1.314-0.379,0.737-1.352c-1.744-2.942-3.456-5.904-5.132-8.885
			c-0.414-0.736-0.873-1.078-1.757-1.039C284.729,267.005,283.015,266.952,281.303,266.952z M299.776,202.718
			c-1.765,0-3.532,0.043-5.295-0.016c-1.112-0.037-1.138,0.294-0.633,1.149c1.794,3.036,3.559,6.09,5.288,9.164
			c0.393,0.699,0.86,0.96,1.655,0.952c3.477-0.036,6.955-0.052,10.431,0.004c1.242,0.02,1.201-0.352,0.67-1.25
			c-1.769-2.989-3.514-5.993-5.205-9.026c-0.427-0.766-0.927-1.025-1.776-0.995C303.201,202.76,301.487,202.718,299.776,202.718z
			 M343.121,278.186c1.711,0,3.424-0.037,5.134,0.014c1.058,0.032,1.379-0.164,0.755-1.213c-1.803-3.03-3.554-6.091-5.289-9.161
			c-0.358-0.633-0.768-0.899-1.514-0.891c-3.529,0.037-7.06,0.034-10.589,0.005c-0.938-0.008-1.303,0.098-0.701,1.106
			c1.833,3.074,3.615,6.178,5.371,9.297c0.371,0.659,0.822,0.87,1.54,0.855C339.59,278.16,341.356,278.186,343.121,278.186z
			 M355.416,299.068c-1.765,0-3.532,0.037-5.296-0.014c-1.011-0.029-1.225,0.163-0.659,1.111c1.808,3.028,3.558,6.09,5.298,9.158
			c0.38,0.671,0.81,1.007,1.632,0.997c3.477-0.043,6.955-0.05,10.431,0c1.179,0.017,1.272-0.317,0.717-1.255
			c-1.767-2.989-3.52-5.988-5.213-9.019c-0.429-0.768-0.922-1.028-1.776-0.997C358.841,299.113,357.127,299.068,355.416,299.068z
			 M290.514,186.66c-1.819,0-3.639,0.028-5.458-0.012c-0.875-0.019-1.033,0.203-0.583,0.974c1.835,3.137,3.643,6.29,5.447,9.445
			c0.32,0.56,0.71,0.845,1.399,0.839c3.585-0.029,7.17-0.032,10.755-0.001c0.984,0.009,1.107-0.28,0.63-1.093
			c-1.811-3.089-3.609-6.186-5.371-9.303c-0.364-0.643-0.79-0.886-1.524-0.866C294.047,186.693,292.28,186.66,290.514,186.66z
			 M346.154,283.01c-1.764,0-3.529,0.035-5.291-0.014c-0.985-0.027-1.252,0.143-0.679,1.108c1.827,3.075,3.602,6.181,5.361,9.295
			c0.366,0.648,0.822,0.864,1.545,0.858c3.474-0.029,6.949-0.042,10.423,0.004c1.13,0.015,1.32-0.279,0.748-1.249
			c-1.79-3.035-3.558-6.084-5.289-9.153c-0.368-0.652-0.798-0.881-1.526-0.863C349.682,283.04,347.918,283.01,346.154,283.01z"/>
		<polygon class="st0" points="289.695,325.897 289.806,325.845 289.72,325.909 		"/>
	</g>
</g>
</svg>
