<?xml version="1.0" encoding="UTF-8" standalone="no"?>
<!-- Created with Inkscape (http://www.inkscape.org/) -->

<svg
   xmlns:dc="http://purl.org/dc/elements/1.1/"
   xmlns:cc="http://creativecommons.org/ns#"
   xmlns:rdf="http://www.w3.org/1999/02/22-rdf-syntax-ns#"
   xmlns:svg="http://www.w3.org/2000/svg"
   xmlns="http://www.w3.org/2000/svg"
   xmlns:sodipodi="http://sodipodi.sourceforge.net/DTD/sodipodi-0.dtd"
   xmlns:inkscape="http://www.inkscape.org/namespaces/inkscape"
   width="140"
   height="70"
   viewBox="0 0 37.041668 18.520834"
   version="1.1"
   id="SVGRoot"
   inkscape:version="0.92.3 (2405546, 2018-03-11)"
   sodipodi:docname="2617100.svg">
  <sodipodi:namedview
     id="base"
     pagecolor="#ffffff"
     bordercolor="#666666"
     borderopacity="1.0"
     inkscape:pageopacity="0.0"
     inkscape:pageshadow="2"
     inkscape:zoom="2"
     inkscape:cx="139.5"
     inkscape:cy="-62"
     inkscape:document-units="mm"
     inkscape:current-layer="layer1"
     showgrid="false"
     inkscape:window-width="1920"
     inkscape:window-height="1017"
     inkscape:window-x="-8"
     inkscape:window-y="-8"
     inkscape:window-maximized="1"
     units="px" />
  <defs
     id="defs184" />
  <metadata
     id="metadata187">
    <rdf:RDF>
      <cc:Work
         rdf:about="">
        <dc:format>image/svg+xml</dc:format>
        <dc:type
           rdf:resource="http://purl.org/dc/dcmitype/StillImage" />
        <dc:title></dc:title>
      </cc:Work>
    </rdf:RDF>
  </metadata>
  <g
     id="layer1"
     inkscape:groupmode="layer"
     inkscape:label="Layer 1"
     transform="translate(0,-33.479166)">
    <path
       style="fill:#ffffff;fill-opacity:0;stroke:#000000;stroke-width:0.0668746;stroke-miterlimit:10;stroke-opacity:1"
       d="m 4.4883533,51.486406 c 1.3127885,-2.819627 0.7855628,-2.328747 3.0921203,-5.284275 1.473227,-1.496679 2.7393774,-2.470012 3.2044684,-1.336322 0.157075,0.684415 0.0535,1.334434 0.470775,1.456569 0.458956,-0.107309 1.091068,-1.959861 1.901844,-2.677519 0.457446,-0.454324 1.849557,-1.845362 1.706011,-0.346024 -0.129568,0.504019 -0.178643,1.183968 0.624192,0.499449 0.563927,-0.772252 1.941071,-2.030973 2.569803,-2.150089 0.386205,0.108166 -0.197862,1.523199 0.94207,0.42888 0.708018,-0.61723 2.040402,-2.312824 2.191691,-1.908519 -0.681484,1.711106 -1.148657,1.64113 -1.170855,1.245581 -0.01458,-0.259851 0.498597,-0.969233 1.111325,-1.350906 0.206822,-0.02802 0.0033,0.688636 0.2156,0.883799 0.602922,0.301192 1.524716,-1.53344 1.797399,-1.60287 0.244448,0.01964 -0.08579,1.675002 0.725627,0.769417 0.306693,-0.313898 0.683795,-1.426542 0.711652,-0.770605 -0.01,0.893904 0.891944,0.167938 1.763665,-0.859006 0.677049,-0.54463 -1.297246,0.959167 -0.361797,0.964392 0.556388,-0.139262 0.410373,-1.420494 0.623076,-0.987904 0.08,0.408165 0.729498,0.933159 0.893728,0.728731"
       id="path61-9"
       inkscape:connector-curvature="0"
       sodipodi:nodetypes="ccccccccccsccccccccc" />
    <path
       style="fill:#ffffff;fill-opacity:0;stroke:#000000;stroke-width:0.0668746;stroke-miterlimit:10;stroke-opacity:1"
       d="m 16.844631,46.162538 c 1.536591,-0.291998 2.660321,-1.3619 4.1664,-1.960551 3.050295,-1.567437 6.261471,-2.840027 9.544623,-3.83859 0.08787,-0.02274 0.175988,-0.04456 0.264341,-0.06533"
       id="path63-6"
       inkscape:connector-curvature="0"
       sodipodi:nodetypes="cccc" />
    <path
       id="path65-4"
       d="m 23.947488,36.254461 c 0.213437,0.03956 0.308907,0.145886 0.532932,0.168346"
       stroke-miterlimit="10"
       layer="1"
       inkscape:connector-curvature="0"
       style="fill:#ffffff;fill-opacity:0;stroke:#000000;stroke-width:0.0668746;stroke-miterlimit:10;stroke-opacity:1"
       sodipodi:nodetypes="cc" />
    <path
       style="fill:#ffffff;fill-opacity:0;stroke:#000000;stroke-width:0.0668746;stroke-miterlimit:10;stroke-opacity:1"
       d="m 29.16816,37.888328 c 0,0 0.03721,0.05574 0.05918,-0.153772 0.02498,-0.238414 -0.0939,-0.692889 -0.13071,-1.193241 -0.07158,-0.973148 0.183236,-1.506502 0.183236,-1.506502 0,0 -0.231615,0.459223 -0.236925,0.612312 -0.02601,0.750174 0.135329,2.412786 0.125214,2.241203 -0.01338,-0.227279 -0.07842,-1.140681 -0.07295,-1.367783 -0.06037,-1.061002 -0.147914,-1.24429 0.651231,-2.203798 0.210467,-0.114178 0.549658,-0.128053 0.7547,0.02039 0.153082,0.110827 0.207333,0.384318 0.207333,0.384318 -0.0345,0.565969 -1.021304,1.781581 -1.613264,1.79909"
       id="path67-5"
       inkscape:connector-curvature="0"
       sodipodi:nodetypes="csscssccscc" />
  </g>
</svg>
